<svg width="42" height="43" viewBox="0 0 42 43" fill="none" xmlns="http://www.w3.org/2000/svg">
<path fill-rule="evenodd" clip-rule="evenodd" d="M0 21.5C0 9.90202 9.40202 0.5 21 0.5C32.598 0.5 42 9.90202 42 21.5C42 33.098 32.598 42.5 21 42.5C9.40202 42.5 0 33.098 0 21.5Z" fill="#A4ABB1"/>
<path fill-rule="evenodd" clip-rule="evenodd" d="M21.0011 9.5C17.7421 9.5 17.3331 9.51366 16.0531 9.56948C14.7756 9.62554 13.9036 9.81936 13.1405 10.1037C12.3513 10.3975 11.6818 10.7904 11.0148 11.4298C10.3473 12.0691 9.93726 12.7107 9.62976 13.4668C9.33225 14.1982 9.12975 15.0341 9.07225 16.2579C9.015 17.4846 9 17.8768 9 21C9 24.1232 9.0145 24.514 9.0725 25.7406C9.13125 26.9649 9.3335 27.8006 9.63001 28.5318C9.93676 29.2881 10.3468 29.9298 11.014 30.569C11.6808 31.2086 12.3503 31.6025 13.139 31.8963C13.9026 32.1806 14.7748 32.3745 16.0521 32.4305C17.3321 32.4863 17.7408 32.5 20.9996 32.5C24.2589 32.5 24.6667 32.4863 25.9467 32.4305C27.2242 32.3745 28.0972 32.1806 28.8607 31.8963C29.6497 31.6025 30.3182 31.2086 30.985 30.569C31.6525 29.9298 32.0625 29.2881 32.37 28.532C32.665 27.8006 32.8675 26.9647 32.9275 25.7409C32.985 24.5142 33 24.1232 33 21C33 17.8768 32.985 17.4848 32.9275 16.2582C32.8675 15.0339 32.665 14.1982 32.37 13.467C32.0625 12.7107 31.6525 12.0691 30.985 11.4298C30.3175 10.7902 29.65 10.3972 28.86 10.1037C28.0949 9.81936 27.2224 9.62554 25.9449 9.56948C24.6649 9.51366 24.2574 9.5 20.9974 9.5L21.0011 9.5Z" fill="#4A4F53"/>
<path fill-rule="evenodd" clip-rule="evenodd" d="M19.9058 11.5029C20.2306 11.5024 20.593 11.5029 21.0001 11.5029C24.2571 11.5029 24.6431 11.514 25.9293 11.5695C27.1186 11.6212 27.7641 11.81 28.1941 11.9687C28.7634 12.1787 29.1692 12.4299 29.5959 12.8355C30.0229 13.2411 30.2872 13.6275 30.5088 14.1683C30.6757 14.5764 30.8747 15.1897 30.9288 16.3197C30.9873 17.5415 31 17.9085 31 21.0016C31 24.0946 30.9873 24.4616 30.9288 25.6834C30.8745 26.8134 30.6757 27.4267 30.5088 27.8348C30.2877 28.3757 30.0229 28.7608 29.5959 29.1662C29.169 29.5718 28.7636 29.823 28.1941 30.033C27.7646 30.1924 27.1186 30.3807 25.9293 30.4324C24.6434 30.4879 24.2571 30.5 21.0001 30.5C17.7429 30.5 17.3569 30.4879 16.071 30.4324C14.8816 30.3802 14.2361 30.1914 13.8059 30.0328C13.2366 29.8227 12.83 29.5716 12.4031 29.166C11.9761 28.7603 11.7118 28.3749 11.4902 27.8338C11.3233 27.4258 11.1243 26.8125 11.0701 25.6825C11.0117 24.4607 11 24.0937 11 20.9987C11 17.9037 11.0117 17.5386 11.0701 16.3168C11.1245 15.1868 11.3233 14.5735 11.4902 14.165C11.7113 13.6241 11.9761 13.2378 12.4031 12.8321C12.83 12.4265 13.2366 12.1754 13.8059 11.9648C14.2359 11.8054 14.8816 11.6171 16.071 11.5652C17.1963 11.5169 17.6324 11.5024 19.9058 11.5V11.5029Z" fill="#A4ABB1"/>
<path fill-rule="evenodd" clip-rule="evenodd" d="M26.5296 13.4575C25.7725 13.4575 25.1582 14.0711 25.1582 14.8285C25.1582 15.5856 25.7725 16.1999 26.5296 16.1999C27.2868 16.1999 27.9011 15.5856 27.9011 14.8285C27.9011 14.0713 27.2868 13.457 26.5296 13.457V13.4575Z" fill="#4A4F53"/>
<path fill-rule="evenodd" clip-rule="evenodd" d="M21.0005 15.5C17.6867 15.5 15 18.1868 15 21.5006C15 24.8145 17.6867 27.5 21.0005 27.5C24.3143 27.5 27 24.8145 27 21.5006C27 18.1868 24.314 15.5 21.0002 15.5L21.0005 15.5Z" fill="#4A4F53"/>
<path fill-rule="evenodd" clip-rule="evenodd" d="M21 17.5C23.209 17.5 25 19.2908 25 21.5C25 23.709 23.209 25.5 21 25.5C18.7908 25.5 17 23.709 17 21.5C17 19.2908 18.7908 17.5 21 17.5V17.5Z" fill="#A4ABB1"/>
</svg>
