<svg width="251" height="29" viewBox="0 0 251 29" fill="none" xmlns="http://www.w3.org/2000/svg">
<g opacity="0.5" clip-path="url(#clip0_401_14779)">
<path fill-rule="evenodd" clip-rule="evenodd" d="M0 27.5H28V0.5H0V27.5ZM3.49943 20.371C4.17685 19.5806 4.85427 18.7903 5.8704 18.1129C9.93492 15.1774 14.1123 15.7419 13.9994 15.7419L26.3059 20.5968V23.9839L14.2252 19.2419C14.2252 19.2419 9.59621 17.5484 4.96718 21.0484C2.32528 23.0298 1.72257 26.0845 1.58942 26.7593L1.58008 26.8064V25.2258C1.58008 25.1243 1.60289 25.0684 1.628 25.0069C1.65876 24.9316 1.69298 24.8477 1.69298 24.6613C1.91879 23.4193 2.3704 21.9516 3.49943 20.371ZM5.08008 13.7097C2.82201 16.0806 1.91879 19.129 1.58008 21.5V24.7742C1.80588 21.3871 3.04782 18.1129 5.64459 15.7419C9.59621 12.2419 13.9994 12.2419 13.9994 12.2419L26.3059 17.0968V13.5968L14.1123 8.96774C14.1123 8.96774 9.3704 9.30645 5.08008 13.7097ZM1.69386 16.6452C1.91967 15.4032 2.59709 12.129 4.29064 9.64517C8.46806 3.5484 14.0003 2.08066 14.0003 2.08066L26.4197 6.82259V10.2097L14.0003 5.46775C14.0003 5.46775 9.37128 6.48388 5.41967 10.7742C2.25838 14.2742 1.69386 19.129 1.58096 20.9355C1.58096 20.9355 1.46806 18.2258 1.69386 16.6452Z" fill="#F9FAFE"/>
<path fill-rule="evenodd" clip-rule="evenodd" d="M250.4 0.9V28V28.1H243.7V13.3L235 28.1H229.2V0.9H235.9V15.7L244.6 0.9H250.4ZM225.3 0.8V6.8H218.7V28H212V6.8H205.3V0.8H225.3ZM193.6 22C195.3 22 196.3 20.9 196.3 19.3C196.3 17.7 195.2 16.5 193.6 16.5H189.4V22H193.6ZM193.9 10.6C199.6 10.6 203 14.2 203 19.3C203 24.4 199.6 28 193.9 28H182.7V0.8H201.3V6.8H189.4V10.6H193.9ZM169.2 12.3C170.9 12.3 172.1 11.2 172.1 9.6C172.1 8 170.8 6.9 169.2 6.9H165.4V12.3H169.2ZM169.4 0.9C174.8 0.9 178.7 4.5 178.7 9.6C178.7 14.7 174.9 18.3 169.4 18.4H165.3V28.1H158.6V0.9H169.4ZM146.4 21C147.1 20.1 147.4 18.6 147.4 15.1V13.2C147.4 10.7 147.1 8.7 146.4 7.7C145.8 6.9 144.8 6.5 143.7 6.5C142.6 6.5 141.6 6.9 141 7.7C140.3 8.6 140 10.6 140 13.2V15.1C140 18.6 140.3 20.1 141 21C141.6 21.7 142.6 22.2 143.7 22.2C144.8 22.2 145.8 21.8 146.4 21ZM151.4 3.6C153.3 5.6 154.1 8.1 154.1 12V15.4C154.1 19 154 22.4 151.4 25.1C149.4 27.2 146.9 28.2 143.8 28.2C140.7 28.2 138.2 27.2 136.2 25.1C133.5 22.3 133.5 18.7 133.5 15.4V13.4C133.5 8.1 134.1 5.8 136.2 3.6C138.2 1.5 140.7 0.5 143.8 0.5C146.9 0.5 149.4 1.5 151.4 3.6ZM132 0.5V6.5H121V27.5H114V0.5H132ZM103.9 19.4H110.7C109.7 25.4 105.5 28.2 100.3 28.3C97.1 28.3 94.7 27.2 92.7 25.2C89.9936 22.3969 89.9966 18.753 89.9998 14.8101C89.9999 14.6737 90 14.537 90 14.4C90 14.2674 89.9999 14.1351 89.9998 14.0032C89.9967 10.0554 89.9938 6.41268 92.8 3.8C94.8 1.8 97.2 0.7 100.4 0.7C105.5 0.7 109.7 3.6 110.7 9.6H103.9C103.5 8.1 102.6 6.7 100.4 6.7C99.2 6.7 98.3 7.2 97.8 7.8C97.2 8.6 96.8 9.5 96.8 14.5C96.8 19.4 97.2 20.4 97.8 21.2C98.3 21.8 99.2 22.3 100.4 22.3C102.6 22.3 103.5 20.9 103.9 19.4ZM61 0.5V27.5H55V14.5L50.5 21.5H46.2L42 14.5V27.5H36V0.5H42L48.5 13.1L55 0.5H61Z" fill="#F9FAFE"/>
<path fill-rule="evenodd" clip-rule="evenodd" d="M86.1996 12C86.1996 8.09998 85.4996 5.59998 83.5996 3.59998C81.5996 1.59998 78.9996 0.599976 75.8996 0.599976C72.7996 0.599976 70.2996 1.59998 68.2996 3.69998C66.1996 5.89998 65.5996 8.19998 65.5996 13.5V15.5C65.5996 18.8 65.5996 22.4 68.2996 25.2C70.2996 27.3 72.7996 28.3 75.8996 28.3C78.9996 28.3 81.4996 27.3 83.4996 25.2C86.0996 22.5 86.1996 19.1 86.1996 15.5V12ZM79.6988 15.0762C79.6988 18.5762 79.2988 20.1 78.5988 21C77.9988 21.8 76.9988 22.3 75.9988 22.3C74.8988 22.3 73.8988 21.8 73.2988 21.1C72.5988 20.2 72.2988 18.7 72.2988 15.2V13.3C72.2988 10.7 72.5988 8.69998 73.2988 7.79998C73.8988 6.99998 74.7988 6.59998 75.9988 6.59998C77.0988 6.59998 78.0988 6.99998 78.6988 7.79998C79.3988 8.79998 79.6988 10.8 79.6988 13.3V15.0762Z" fill="#F9FAFE"/>
</g>
<defs>
<clipPath id="clip0_401_14779">
<rect width="250.4" height="27.6" fill="white" transform="translate(0 0.5)"/>
</clipPath>
</defs>
</svg>
