<svg width="42" height="43" viewBox="0 0 42 43" fill="none" xmlns="http://www.w3.org/2000/svg">
<path fill-rule="evenodd" clip-rule="evenodd" d="M0 21.5C0 9.90202 9.40202 0.5 21 0.5C32.598 0.5 42 9.90202 42 21.5C42 33.098 32.598 42.5 21 42.5C9.40202 42.5 0 33.098 0 21.5Z" fill="#A4ABB1"/>
<path fill-rule="evenodd" clip-rule="evenodd" d="M21.5495 28.6762C21.5495 28.6762 21.962 28.6312 22.1733 28.4084C22.3667 28.2043 22.36 27.8191 22.36 27.8191C22.36 27.8191 22.3343 26.0206 23.1851 25.755C24.0235 25.4938 25.1001 27.4943 26.2426 28.2636C27.1057 28.8452 27.7608 28.7179 27.7608 28.7179L30.8139 28.6762C30.8139 28.6762 32.4103 28.5796 31.6535 27.3473C31.5909 27.2463 31.2119 26.4354 29.3841 24.7696C27.469 23.0258 27.7262 23.3079 30.0314 20.2912C31.4355 18.4542 31.9967 17.3327 31.8212 16.8531C31.6546 16.3944 30.6216 16.5162 30.6216 16.5162L27.1851 16.5371C27.1851 16.5371 26.9302 16.5031 26.7413 16.6139C26.5568 16.7225 26.4372 16.976 26.4372 16.976C26.4372 16.976 25.8939 18.3971 25.1683 19.6064C23.6378 22.1567 23.0263 22.2917 22.7759 22.1337C22.1935 21.7639 22.3388 20.65 22.3388 19.8588C22.3388 17.3864 22.7211 16.356 21.5954 16.0894C21.222 16.0005 20.9469 15.9423 19.9911 15.9324C18.7647 15.9204 17.7273 15.9368 17.1392 16.2188C16.748 16.4065 16.4461 16.8257 16.6306 16.8498C16.8575 16.8795 17.3718 16.9859 17.6445 17.3502C17.9967 17.821 17.9844 18.8767 17.9844 18.8767C17.9844 18.8767 18.1867 21.7869 17.5115 22.1479C17.0487 22.3959 16.4137 21.8901 15.0487 19.5757C14.35 18.3905 13.8223 17.0803 13.8223 17.0803C13.8223 17.0803 13.7206 16.8356 13.5383 16.7039C13.3181 16.5448 13.0107 16.4954 13.0107 16.4954L9.74515 16.5162C9.74515 16.5162 9.25438 16.5294 9.07439 16.739C8.91452 16.9245 9.06209 17.3096 9.06209 17.3096C9.06209 17.3096 11.6188 23.1817 14.5143 26.1413C17.1694 28.854 20.1834 28.6762 20.1834 28.6762H21.5495Z" fill="#4A4F53"/>
</svg>
