<svg width="42" height="43" viewBox="0 0 42 43" fill="none" xmlns="http://www.w3.org/2000/svg">
<path fill-rule="evenodd" clip-rule="evenodd" d="M0 21.5C0 9.90202 9.40202 0.5 21 0.5C32.598 0.5 42 9.90202 42 21.5C42 33.098 32.598 42.5 21 42.5C9.40202 42.5 0 33.098 0 21.5Z" fill="#A4ABB1"/>
<path fill-rule="evenodd" clip-rule="evenodd" d="M31.5402 15.9985C31.2873 15.015 30.5417 14.2405 29.5951 13.9777C27.8796 13.5 21 13.5 21 13.5C21 13.5 14.1204 13.5 12.4048 13.9777C11.4581 14.2405 10.7126 15.015 10.4596 15.9985C10 17.7809 10 21.5 10 21.5C10 21.5 10 25.219 10.4596 27.0015C10.7126 27.985 11.4581 28.7595 12.4048 29.0225C14.1204 29.5 21 29.5 21 29.5C21 29.5 27.8796 29.5 29.5951 29.0225C30.5417 28.7595 31.2873 27.985 31.5402 27.0015C32 25.219 32 21.5 32 21.5C32 21.5 32 17.7809 31.5402 15.9985Z" fill="#4A4F53"/>
<path fill-rule="evenodd" clip-rule="evenodd" d="M19 25.5V17.5L25 21.5002L19 25.5Z" fill="#A4ABB1"/>
</svg>
