<svg width="185" height="170" viewBox="0 0 185 170" fill="none" xmlns="http://www.w3.org/2000/svg">
<mask id="mask0_401_14654" style="mask-type:alpha" maskUnits="userSpaceOnUse" x="20" y="1" width="107" height="157">
<path d="M121.6 44.5805C121.6 50.1538 120.5 55.5072 118.3 60.6405C116.1 65.7738 113.24 70.7605 109.72 75.6005C106.2 80.2938 102.24 84.8405 97.8405 89.2405C93.4405 93.6405 89.1138 97.8205 84.8605 101.78C82.6605 103.834 80.2405 106.18 77.6005 108.82C75.1071 111.314 72.6871 113.88 70.3405 116.52C67.9938 119.16 65.8671 121.654 63.9605 124C62.2005 126.2 61.1005 128.034 60.6605 129.5H126.22V157H24.5805C24.2871 155.387 24.1405 153.334 24.1405 150.84C24.1405 148.347 24.1405 146.587 24.1405 145.56C24.1405 138.52 25.2405 132.067 27.4405 126.2C29.7871 120.334 32.7938 114.907 36.4605 109.92C40.1271 104.787 44.2338 100.02 48.7805 95.6205C53.4738 91.2205 58.0938 86.8205 62.6405 82.4205C66.1605 79.0472 69.4605 75.8938 72.5405 72.9605C75.6205 69.8805 78.3338 66.9471 80.6805 64.1605C83.0271 61.2271 84.8605 58.3671 86.1805 55.5805C87.5005 52.6471 88.1605 49.7138 88.1605 46.7805C88.1605 40.3271 86.3271 35.7805 82.6605 33.1405C78.9938 30.5005 74.4471 29.1805 69.0205 29.1805C65.0605 29.1805 61.3205 29.8405 57.8005 31.1605C54.4271 32.3338 51.2738 33.8005 48.3405 35.5605C45.5538 37.1738 43.1338 38.8605 41.0805 40.6205C39.0271 42.2338 37.4871 43.5538 36.4605 44.5805L20.1805 21.7005C26.6338 15.6872 34.1138 10.7738 42.6205 6.96048C51.2738 3.00048 60.5138 1.02048 70.3405 1.02048C79.2871 1.02048 86.9871 2.04714 93.4405 4.10048C99.8938 6.15381 105.174 9.08714 109.28 12.9005C113.534 16.5671 116.614 21.1138 118.52 26.5405C120.574 31.8205 121.6 37.8338 121.6 44.5805Z" fill="black"/>
</mask>
<g mask="url(#mask0_401_14654)">
<path d="M121 239L-189 -33.9995" stroke="#3E41DE" stroke-width="0.5" stroke-miterlimit="10"/>
<path d="M110 239L-200 -33.9995" stroke="#3E41DE" stroke-width="0.5" stroke-miterlimit="10"/>
<path d="M132 237L-179 -37.9995" stroke="#3E41DE" stroke-width="0.5" stroke-miterlimit="10"/>
<path d="M136 235L-176 -39.9995" stroke="#3E41DE" stroke-width="0.5" stroke-miterlimit="10"/>
<path d="M143 233L-174 -46.9995" stroke="#3E41DE" stroke-width="0.5" stroke-miterlimit="10"/>
<path d="M150 230L-169 -50.9995" stroke="#3E41DE" stroke-width="0.5" stroke-miterlimit="10"/>
<path d="M157 228L-163 -54.9995" stroke="#3E41DE" stroke-width="0.5" stroke-miterlimit="10"/>
<path d="M164 225L-158 -57.9995" stroke="#3E41DE" stroke-width="0.5" stroke-miterlimit="10"/>
<path d="M170 222L-153 -61.9995" stroke="#3E41DE" stroke-width="0.5" stroke-miterlimit="10"/>
<path d="M177 220L-147 -65.9995" stroke="#3E41DE" stroke-width="0.5" stroke-miterlimit="10"/>
<path d="M183 217L-142 -69.9995" stroke="#3E41DE" stroke-width="0.5" stroke-miterlimit="10"/>
<path d="M189 214L-136 -72.9995" stroke="#3E41DE" stroke-width="0.5" stroke-miterlimit="10"/>
<path d="M195 210L-131 -76.9995" stroke="#3E41DE" stroke-width="0.5" stroke-miterlimit="10"/>
<path d="M201 207L-125 -80.9995" stroke="#3E41DE" stroke-width="0.5" stroke-miterlimit="10"/>
<path d="M207 203L-119 -83.9995" stroke="#3E41DE" stroke-width="0.5" stroke-miterlimit="10"/>
<path d="M213 200.001L-113 -86.9995" stroke="#3E41DE" stroke-width="0.5" stroke-miterlimit="10"/>
<path d="M218 196L-108 -90.9995" stroke="#3E41DE" stroke-width="0.5" stroke-miterlimit="10"/>
<path d="M223 192L-102 -93.9995" stroke="#3E41DE" stroke-width="0.5" stroke-miterlimit="10"/>
<path d="M229 188L-96 -96.9995" stroke="#3E41DE" stroke-width="0.5" stroke-miterlimit="10"/>
<path d="M234 184L-89 -99.9995" stroke="#3E41DE" stroke-width="0.5" stroke-miterlimit="10"/>
<path d="M238 180L-83 -104" stroke="#3E41DE" stroke-width="0.5" stroke-miterlimit="10"/>
<path d="M243 176.001L-77 -107" stroke="#3E41DE" stroke-width="0.5" stroke-miterlimit="10"/>
<path d="M248 171L-71 -110" stroke="#3E41DE" stroke-width="0.5" stroke-miterlimit="10"/>
<path d="M252 167L-65 -113" stroke="#3E41DE" stroke-width="0.5" stroke-miterlimit="10"/>
<path d="M257 162.001L-58 -116" stroke="#3E41DE" stroke-width="0.5" stroke-miterlimit="10"/>
<path d="M261 157L-52 -118" stroke="#3E41DE" stroke-width="0.5" stroke-miterlimit="10"/>
<path d="M265 152L-45 -121" stroke="#3E41DE" stroke-width="0.5" stroke-miterlimit="10"/>
<path d="M269 147L-39 -124" stroke="#3E41DE" stroke-width="0.5" stroke-miterlimit="10"/>
<path d="M273 142L-32 -127" stroke="#3E41DE" stroke-width="0.5" stroke-miterlimit="10"/>
<path d="M276 136L-25 -129" stroke="#3E41DE" stroke-width="0.5" stroke-miterlimit="10"/>
<path d="M280 131L-18 -132" stroke="#3E41DE" stroke-width="0.5" stroke-miterlimit="10"/>
<path d="M283 128L-12 -132" stroke="#3E41DE" stroke-width="0.5" stroke-miterlimit="10"/>
<path d="M286 120L-5 -137" stroke="#3E41DE" stroke-width="0.5" stroke-miterlimit="10"/>
<path d="M289 114L2 -139" stroke="#3E41DE" stroke-width="0.5" stroke-miterlimit="10"/>
</g>
<circle cx="130.5" cy="100.5" r="52.5" fill="#3E41DE"/>
<ellipse cx="113.85" cy="96.0005" rx="1.02" ry="1.02" fill="white"/>
<path d="M153.6 122.96V73.8405C153.6 71.6313 151.809 69.8405 149.6 69.8405H119.531C118.754 69.8405 118.008 70.1418 117.448 70.6812L106.637 81.1089C106.051 81.6743 105.72 82.4537 105.72 83.2681V122.96C105.72 125.17 107.511 126.96 109.72 126.96H149.6C151.809 126.96 153.6 125.17 153.6 122.96Z" stroke="white" stroke-width="2" stroke-linecap="round"/>
<path d="M120 69.8405V81.2805C120 82.385 119.105 83.2805 118 83.2805H105.72" stroke="white" stroke-width="2"/>
<path d="M114.12 90.0005H146.88" stroke="white" stroke-width="2" stroke-linecap="round"/>
<path d="M119.16 95.8805L146.88 95.8805" stroke="white" stroke-width="2" stroke-linecap="round"/>
<path d="M114.12 101.76H146.88" stroke="white" stroke-width="2" stroke-linecap="round"/>
<path d="M114.12 107.641H128.4" stroke="white" stroke-width="2" stroke-linecap="round"/>
<path d="M114.12 113.521H128.4" stroke="white" stroke-width="2" stroke-linecap="round"/>
<rect x="136.12" y="108.641" width="21.0299" height="21.0299" rx="1" fill="#3E41DE" stroke="white" stroke-width="2"/>
<path d="M141.062 116.665L144.524 122.619C145.279 123.917 147.142 123.951 147.944 122.682L153.692 113.584" stroke="white" stroke-width="2" stroke-linecap="round"/>
</svg>
