<svg width="185" height="170" viewBox="0 0 185 170" fill="none" xmlns="http://www.w3.org/2000/svg">
<mask id="mask0_401_14342" style="mask-type:alpha" maskUnits="userSpaceOnUse" x="20" y="1" width="107" height="156">
<path d="M121.6 44.58C121.6 50.1533 120.5 55.5067 118.3 60.64C116.1 65.7733 113.24 70.76 109.72 75.6C106.2 80.2933 102.24 84.84 97.8405 89.24C93.4405 93.64 89.1138 97.82 84.8605 101.78C82.6605 103.833 80.2405 106.18 77.6005 108.82C75.1071 111.313 72.6871 113.88 70.3405 116.52C67.9938 119.16 65.8671 121.653 63.9605 124C62.2005 126.2 61.1005 128.033 60.6605 129.5H126.22V157H24.5805C24.2871 155.387 24.1405 153.333 24.1405 150.84C24.1405 148.347 24.1405 146.587 24.1405 145.56C24.1405 138.52 25.2405 132.067 27.4405 126.2C29.7871 120.333 32.7938 114.907 36.4605 109.92C40.1271 104.787 44.2338 100.02 48.7805 95.62C53.4738 91.22 58.0938 86.82 62.6405 82.42C66.1605 79.0467 69.4605 75.8933 72.5405 72.96C75.6205 69.88 78.3338 66.9467 80.6805 64.16C83.0271 61.2267 84.8605 58.3667 86.1805 55.58C87.5005 52.6467 88.1605 49.7133 88.1605 46.78C88.1605 40.3267 86.3271 35.78 82.6605 33.14C78.9938 30.5 74.4471 29.18 69.0205 29.18C65.0605 29.18 61.3205 29.84 57.8005 31.16C54.4271 32.3333 51.2738 33.8 48.3405 35.56C45.5538 37.1733 43.1338 38.86 41.0805 40.62C39.0271 42.2333 37.4871 43.5533 36.4605 44.58L20.1805 21.7C26.6338 15.6867 34.1138 10.7733 42.6205 6.95999C51.2738 2.99999 60.5138 1.01999 70.3405 1.01999C79.2871 1.01999 86.9871 2.04666 93.4405 4.09999C99.8938 6.15332 105.174 9.08666 109.28 12.9C113.534 16.5667 116.614 21.1133 118.52 26.54C120.574 31.82 121.6 37.8333 121.6 44.58Z" fill="black"/>
</mask>
<g mask="url(#mask0_401_14342)">
<path d="M121 239L-189 -34" stroke="#3E41DE" stroke-width="0.5" stroke-miterlimit="10"/>
<path d="M110 239L-200 -34" stroke="#3E41DE" stroke-width="0.5" stroke-miterlimit="10"/>
<path d="M132 237L-179 -38" stroke="#3E41DE" stroke-width="0.5" stroke-miterlimit="10"/>
<path d="M136 235L-176 -40" stroke="#3E41DE" stroke-width="0.5" stroke-miterlimit="10"/>
<path d="M143 233L-174 -47" stroke="#3E41DE" stroke-width="0.5" stroke-miterlimit="10"/>
<path d="M150 230L-169 -51" stroke="#3E41DE" stroke-width="0.5" stroke-miterlimit="10"/>
<path d="M157 228L-163 -55" stroke="#3E41DE" stroke-width="0.5" stroke-miterlimit="10"/>
<path d="M164 225L-158 -58" stroke="#3E41DE" stroke-width="0.5" stroke-miterlimit="10"/>
<path d="M170 222L-153 -62" stroke="#3E41DE" stroke-width="0.5" stroke-miterlimit="10"/>
<path d="M177 220L-147 -66" stroke="#3E41DE" stroke-width="0.5" stroke-miterlimit="10"/>
<path d="M183 217L-142 -70" stroke="#3E41DE" stroke-width="0.5" stroke-miterlimit="10"/>
<path d="M189 214L-136 -73" stroke="#3E41DE" stroke-width="0.5" stroke-miterlimit="10"/>
<path d="M195 210L-131 -77" stroke="#3E41DE" stroke-width="0.5" stroke-miterlimit="10"/>
<path d="M201 207L-125 -81" stroke="#3E41DE" stroke-width="0.5" stroke-miterlimit="10"/>
<path d="M207 203L-119 -84" stroke="#3E41DE" stroke-width="0.5" stroke-miterlimit="10"/>
<path d="M213 200L-113 -87" stroke="#3E41DE" stroke-width="0.5" stroke-miterlimit="10"/>
<path d="M218 196L-108 -91" stroke="#3E41DE" stroke-width="0.5" stroke-miterlimit="10"/>
<path d="M223 192L-102 -94" stroke="#3E41DE" stroke-width="0.5" stroke-miterlimit="10"/>
<path d="M229 188L-96 -97" stroke="#3E41DE" stroke-width="0.5" stroke-miterlimit="10"/>
<path d="M234 184L-89 -100" stroke="#3E41DE" stroke-width="0.5" stroke-miterlimit="10"/>
<path d="M238 180L-83 -104" stroke="#3E41DE" stroke-width="0.5" stroke-miterlimit="10"/>
<path d="M243 176L-77 -107" stroke="#3E41DE" stroke-width="0.5" stroke-miterlimit="10"/>
<path d="M248 171L-71 -110" stroke="#3E41DE" stroke-width="0.5" stroke-miterlimit="10"/>
<path d="M252 167L-65 -113" stroke="#3E41DE" stroke-width="0.5" stroke-miterlimit="10"/>
<path d="M257 162L-58 -116" stroke="#3E41DE" stroke-width="0.5" stroke-miterlimit="10"/>
<path d="M261 157L-52 -118" stroke="#3E41DE" stroke-width="0.5" stroke-miterlimit="10"/>
<path d="M265 152L-45 -121" stroke="#3E41DE" stroke-width="0.5" stroke-miterlimit="10"/>
<path d="M269 147L-39 -124" stroke="#3E41DE" stroke-width="0.5" stroke-miterlimit="10"/>
<path d="M273 142L-32 -127" stroke="#3E41DE" stroke-width="0.5" stroke-miterlimit="10"/>
<path d="M276 136L-25 -129" stroke="#3E41DE" stroke-width="0.5" stroke-miterlimit="10"/>
<path d="M280 131L-18 -132" stroke="#3E41DE" stroke-width="0.5" stroke-miterlimit="10"/>
<path d="M283 128L-12 -132" stroke="#3E41DE" stroke-width="0.5" stroke-miterlimit="10"/>
<path d="M286 120L-5 -137" stroke="#3E41DE" stroke-width="0.5" stroke-miterlimit="10"/>
<path d="M289 114L2 -139" stroke="#3E41DE" stroke-width="0.5" stroke-miterlimit="10"/>
</g>
<circle cx="130.5" cy="100.5" r="52.5" fill="#3E41DE"/>
<ellipse cx="113.04" cy="94.3198" rx="1.02" ry="1.02" fill="white"/>
<path d="M130.92 126.96H108.88C106.671 126.96 104.88 125.169 104.88 122.96V83.2686C104.88 82.4535 105.212 81.6735 105.799 81.1081L116.624 70.6793C117.183 70.1407 117.929 69.8398 118.706 69.8398H148.82C151.029 69.8398 152.82 71.6307 152.82 73.8398V122.96C152.82 125.169 151.029 126.96 148.82 126.96H146.88" stroke="white" stroke-width="2" stroke-linecap="round"/>
<path d="M119.19 69.8398V79.2798C119.19 81.489 117.399 83.2798 115.19 83.2798H104.91" stroke="white" stroke-width="2"/>
<path d="M113.04 88.1997H145.68" stroke="white" stroke-width="2" stroke-linecap="round"/>
<path d="M118.14 94.3198L145.68 94.3198" stroke="white" stroke-width="2" stroke-linecap="round"/>
<path d="M113.04 100.44H145.68" stroke="white" stroke-width="2" stroke-linecap="round"/>
<path d="M113.04 106.56H126.3" stroke="white" stroke-width="2" stroke-linecap="round"/>
<path d="M113.04 112.68H123.24" stroke="white" stroke-width="2" stroke-linecap="round"/>
<ellipse cx="138.9" cy="113.1" rx="7.98" ry="7.98" stroke="white" stroke-width="2"/>
<ellipse cx="138.9" cy="113.1" rx="3.78" ry="3.78" stroke="white" stroke-width="2"/>
<path d="M134.28 119.4V133.909L138.9 129.9L143.52 133.909V119.4" stroke="white" stroke-width="2" stroke-linejoin="round"/>
</svg>
