<svg width="185" height="171" viewBox="0 0 185 171" fill="none" xmlns="http://www.w3.org/2000/svg">
<mask id="mask0_401_14698" style="mask-type:alpha" maskUnits="userSpaceOnUse" x="18" y="1" width="106" height="160">
<path d="M62.6405 160.8C58.6805 160.8 54.5005 160.507 50.1005 159.92C45.7005 159.48 41.4471 158.82 37.3405 157.94C33.2338 157.06 29.4938 156.107 26.1205 155.08C22.7471 154.054 20.1071 153.1 18.2005 152.22L24.5805 124.94C28.3938 126.554 33.2338 128.314 39.1005 130.22C45.1138 131.98 52.5205 132.86 61.3205 132.86C71.4405 132.86 78.8471 130.954 83.5405 127.14C88.2338 123.327 90.5805 118.194 90.5805 111.74C90.5805 107.78 89.7005 104.48 87.9405 101.84C86.3271 99.0538 84.0538 96.8538 81.1205 95.2405C78.1871 93.4805 74.6671 92.3072 70.5605 91.7205C66.6005 90.9872 62.3471 90.6205 57.8005 90.6205H45.0405V64.2205H59.5605C62.7871 64.2205 65.8671 63.9271 68.8005 63.3405C71.8805 62.7538 74.5938 61.8005 76.9405 60.4805C79.2871 59.0138 81.1205 57.1071 82.4405 54.7605C83.9071 52.2672 84.6405 49.1872 84.6405 45.5205C84.6405 42.7338 84.0538 40.3138 82.8805 38.2605C81.7071 36.2071 80.1671 34.5205 78.2605 33.2005C76.5005 31.8805 74.3738 30.9272 71.8805 30.3405C69.5338 29.6072 67.1138 29.2405 64.6205 29.2405C58.3138 29.2405 52.4471 30.1938 47.0205 32.1005C41.7405 34.0071 36.9005 36.3538 32.5005 39.1405L20.8405 15.1605C23.1871 13.6938 25.9005 12.1538 28.9805 10.5405C32.2071 8.92715 35.7271 7.46048 39.5405 6.14048C43.3538 4.82048 47.3871 3.72048 51.6405 2.84049C56.0405 1.96048 60.6605 1.52048 65.5005 1.52048C74.4471 1.52048 82.1471 2.62048 88.6005 4.82049C95.2005 6.87382 100.627 9.88048 104.88 13.8405C109.134 17.6538 112.287 22.2005 114.34 27.4805C116.394 32.6138 117.42 38.2605 117.42 44.4205C117.42 50.4338 115.734 56.3005 112.36 62.0205C108.987 67.5938 104.44 71.8471 98.7205 74.7805C106.64 78.0072 112.727 82.8472 116.98 89.3005C121.38 95.6072 123.58 103.234 123.58 112.18C123.58 119.22 122.407 125.747 120.06 131.76C117.714 137.627 114.047 142.76 109.06 147.16C104.074 151.414 97.6938 154.787 89.9205 157.28C82.2938 159.627 73.2005 160.8 62.6405 160.8Z" fill="black"/>
</mask>
<g mask="url(#mask0_401_14698)">
<path d="M121 239.5L-189 -33.4995" stroke="#3E41DE" stroke-width="0.5" stroke-miterlimit="10"/>
<path d="M110 239.5L-200 -33.4995" stroke="#3E41DE" stroke-width="0.5" stroke-miterlimit="10"/>
<path d="M132 237.5L-179 -37.4995" stroke="#3E41DE" stroke-width="0.5" stroke-miterlimit="10"/>
<path d="M136 235.5L-176 -39.4995" stroke="#3E41DE" stroke-width="0.5" stroke-miterlimit="10"/>
<path d="M143 233.5L-174 -46.4995" stroke="#3E41DE" stroke-width="0.5" stroke-miterlimit="10"/>
<path d="M150 230.5L-169 -50.4995" stroke="#3E41DE" stroke-width="0.5" stroke-miterlimit="10"/>
<path d="M157 228.5L-163 -54.4995" stroke="#3E41DE" stroke-width="0.5" stroke-miterlimit="10"/>
<path d="M164 225.5L-158 -57.4995" stroke="#3E41DE" stroke-width="0.5" stroke-miterlimit="10"/>
<path d="M170 222.5L-153 -61.4995" stroke="#3E41DE" stroke-width="0.5" stroke-miterlimit="10"/>
<path d="M177 220.5L-147 -65.4995" stroke="#3E41DE" stroke-width="0.5" stroke-miterlimit="10"/>
<path d="M183 217.5L-142 -69.4995" stroke="#3E41DE" stroke-width="0.5" stroke-miterlimit="10"/>
<path d="M189 214.5L-136 -72.4995" stroke="#3E41DE" stroke-width="0.5" stroke-miterlimit="10"/>
<path d="M195 210.5L-131 -76.4995" stroke="#3E41DE" stroke-width="0.5" stroke-miterlimit="10"/>
<path d="M201 207.5L-125 -80.4995" stroke="#3E41DE" stroke-width="0.5" stroke-miterlimit="10"/>
<path d="M207 203.5L-119 -83.4995" stroke="#3E41DE" stroke-width="0.5" stroke-miterlimit="10"/>
<path d="M213 200.501L-113 -86.4995" stroke="#3E41DE" stroke-width="0.5" stroke-miterlimit="10"/>
<path d="M218 196.5L-108 -90.4995" stroke="#3E41DE" stroke-width="0.5" stroke-miterlimit="10"/>
<path d="M223 192.5L-102 -93.4995" stroke="#3E41DE" stroke-width="0.5" stroke-miterlimit="10"/>
<path d="M229 188.5L-96 -96.4995" stroke="#3E41DE" stroke-width="0.5" stroke-miterlimit="10"/>
<path d="M234 184.5L-89 -99.4995" stroke="#3E41DE" stroke-width="0.5" stroke-miterlimit="10"/>
<path d="M238 180.5L-83 -103.5" stroke="#3E41DE" stroke-width="0.5" stroke-miterlimit="10"/>
<path d="M243 176.501L-77 -106.5" stroke="#3E41DE" stroke-width="0.5" stroke-miterlimit="10"/>
<path d="M248 171.5L-71 -109.5" stroke="#3E41DE" stroke-width="0.5" stroke-miterlimit="10"/>
<path d="M252 167.5L-65 -112.5" stroke="#3E41DE" stroke-width="0.5" stroke-miterlimit="10"/>
<path d="M257 162.501L-58 -115.5" stroke="#3E41DE" stroke-width="0.5" stroke-miterlimit="10"/>
<path d="M261 157.5L-52 -117.5" stroke="#3E41DE" stroke-width="0.5" stroke-miterlimit="10"/>
<path d="M265 152.5L-45 -120.5" stroke="#3E41DE" stroke-width="0.5" stroke-miterlimit="10"/>
<path d="M269 147.5L-39 -123.5" stroke="#3E41DE" stroke-width="0.5" stroke-miterlimit="10"/>
<path d="M273 142.5L-32 -126.5" stroke="#3E41DE" stroke-width="0.5" stroke-miterlimit="10"/>
<path d="M276 136.5L-25 -128.5" stroke="#3E41DE" stroke-width="0.5" stroke-miterlimit="10"/>
<path d="M280 131.5L-18 -131.5" stroke="#3E41DE" stroke-width="0.5" stroke-miterlimit="10"/>
<path d="M283 128.5L-12 -131.5" stroke="#3E41DE" stroke-width="0.5" stroke-miterlimit="10"/>
<path d="M286 120.5L-5 -136.5" stroke="#3E41DE" stroke-width="0.5" stroke-miterlimit="10"/>
<path d="M289 114.5L2 -138.5" stroke="#3E41DE" stroke-width="0.5" stroke-miterlimit="10"/>
</g>
<circle cx="130.5" cy="101" r="52.5" fill="#3E41DE"/>
<path d="M153.63 123.46V74.3405C153.63 72.1313 151.84 70.3405 149.63 70.3405H119.516C118.74 70.3405 117.994 70.6413 117.435 71.1799L106.609 81.6087C106.022 82.1742 105.69 82.9541 105.69 83.7692V123.46C105.69 125.67 107.481 127.46 109.69 127.46H149.63C151.84 127.46 153.63 125.67 153.63 123.46Z" stroke="white" stroke-width="2" stroke-linecap="round"/>
<path d="M120 70.3405V81.7805C120 82.885 119.105 83.7805 118 83.7805H105.72" stroke="white" stroke-width="2"/>
<path d="M114.12 108.141H128.4" stroke="white" stroke-width="2" stroke-linecap="round"/>
<path d="M114.12 114.021H128.4" stroke="white" stroke-width="2" stroke-linecap="round"/>
<rect x="136.12" y="109.141" width="21.0299" height="21.0299" rx="1" fill="#3E41DE" stroke="white" stroke-width="2"/>
<path d="M141.062 117.165L144.524 123.119C145.279 124.417 147.142 124.451 147.944 123.182L153.692 114.084" stroke="white" stroke-width="2" stroke-linecap="round"/>
<path d="M115.5 102.29V98.8054H118.73C119.24 98.8054 119.58 98.4654 119.58 98.0404C119.58 97.6154 119.24 97.2754 118.73 97.2754H115.5V93.7904H119.75C120.26 93.7904 120.6 93.4504 120.6 93.0254C120.6 92.6004 120.26 92.2604 119.75 92.2604H114.65C114.14 92.2604 113.8 92.6004 113.8 93.0254V103.055C113.8 103.48 114.14 103.82 114.65 103.82H119.92C120.43 103.82 120.77 103.48 120.77 103.072C120.77 102.63 120.43 102.29 119.92 102.29H115.5ZM124.332 92.2604C123.822 92.2604 123.482 92.6004 123.482 93.0254V103.055C123.482 103.48 123.822 103.82 124.332 103.82C124.842 103.82 125.182 103.48 125.182 103.055V93.7904H128.582V94.8954C128.582 95.3204 128.922 95.6604 129.432 95.6604C129.942 95.6604 130.282 95.3204 130.282 94.8954V93.0254C130.282 92.6004 129.942 92.2604 129.432 92.2604H124.332ZM134.532 98.2104V93.7904H136.232C137.932 93.7904 138.782 94.6404 138.782 96.0004C138.782 97.3604 137.932 98.2104 136.232 98.2104H134.532ZM140.482 96.0004C140.482 93.7904 138.952 92.2604 136.232 92.2604H133.682C133.172 92.2604 132.832 92.6004 132.832 93.0254V103.055C132.832 103.48 133.172 103.82 133.682 103.82C134.192 103.82 134.532 103.48 134.532 103.055V99.7404H136.232C138.952 99.7404 140.482 98.2104 140.482 96.0004ZM143.377 103.055C143.377 103.48 143.717 103.82 144.227 103.82C144.737 103.82 145.077 103.48 145.077 103.055V98.6354H149.327V103.055C149.327 103.48 149.667 103.82 150.177 103.82C150.687 103.82 151.027 103.48 151.027 103.055V93.0254C151.027 92.6004 150.687 92.2604 150.177 92.2604C149.667 92.2604 149.327 92.6004 149.327 93.0254V97.1054H145.077V93.0254C145.077 92.6004 144.737 92.2604 144.227 92.2604C143.717 92.2604 143.377 92.6004 143.377 93.0254V103.055Z" fill="white"/>
</svg>
