<svg width="315" height="165" viewBox="0 0 315 165" fill="none" xmlns="http://www.w3.org/2000/svg">
<mask id="mask0_699_1183" style="mask-type:alpha" maskUnits="userSpaceOnUse" x="0" y="0" width="315" height="165">
<path d="M0 0.5H315V155.5C315 160.471 310.971 164.5 306 164.5H9C4.02944 164.5 0 160.471 0 155.5V0.5Z" fill="#C4C4C4"/>
</mask>
<g mask="url(#mask0_699_1183)">
<path d="M30.615 145.823L-34.9334 143.399V26.3032L30.615 13.4601V145.823Z" stroke="#5596D0" stroke-width="0.5" stroke-miterlimit="10"/>
<path d="M140.732 147.264L58.7152 144.512V21.2575L140.732 6.97282V147.264Z" stroke="#5596D0" stroke-width="0.5" stroke-miterlimit="10"/>
<path d="M148.706 142.547L211.902 144.185V3.5L148.706 13.7876V142.547Z" stroke="#5596D0" stroke-width="0.5" stroke-miterlimit="10"/>
<path d="M188.636 143.661L140.471 147.461V6.84187L188.636 26.5653V143.661Z" stroke="#5596D0" stroke-width="0.5" stroke-miterlimit="10"/>
<path d="M235.625 142.022L211.902 144.119V3.5L235.625 16.8018V142.022Z" stroke="#5596D0" stroke-width="0.5" stroke-miterlimit="10"/>
<path d="M211.902 16.4742L243.794 32.4626V21.5197L211.902 3.69655V16.4742Z" stroke="#5596D0" stroke-width="0.5" stroke-miterlimit="10"/>
<path d="M234.056 39.0807L223.208 34.2973V22.1094L234.056 27.5481V39.0807Z" stroke="#5596D0" stroke-width="0.5" stroke-miterlimit="10"/>
<path d="M235.624 142.022L223.73 143.071V93.2054L235.624 95.0401V142.022Z" stroke="#5596D0" stroke-width="0.5" stroke-miterlimit="10"/>
<path d="M58.7171 144.447L30.6156 145.954V13.4601L58.7171 21.3232V144.447Z" stroke="#5596D0" stroke-width="0.5" stroke-miterlimit="10"/>
<path d="M11.1383 133.832L-17.8128 133.373V35.4768L11.1383 30.4313V133.832Z" stroke="#5596D0" stroke-width="0.5" stroke-miterlimit="10"/>
<path d="M11.1383 90.1912L-17.8128 92.0259V77.5446L11.1383 74.9236V90.1912Z" stroke="#5596D0" stroke-width="0.5" stroke-miterlimit="10"/>
<path d="M11.1383 99.1682L-17.8128 100.544V92.0259L11.1383 90.1911V99.1682Z" stroke="#5596D0" stroke-width="0.5" stroke-miterlimit="10"/>
<path d="M11.1376 133.832L-3.30527 133.57V91.1085L11.1376 90.1911V133.832Z" stroke="#5596D0" stroke-width="0.5" stroke-miterlimit="10"/>
<path d="M11.1376 30.4313L-3.30527 32.9868V76.2341L11.1376 74.9236V30.4313Z" stroke="#5596D0" stroke-width="0.5" stroke-miterlimit="10"/>
<path d="M11.073 40.4569L-17.8128 44.9127V35.4769L11.073 30.4969V40.4569Z" stroke="#5596D0" stroke-width="0.5" stroke-miterlimit="10"/>
<path d="M101.455 150.41L13.1642 146.806V61.4252L101.455 51.1376V150.41Z" stroke="#5596D0" stroke-width="0.5" stroke-miterlimit="10"/>
<path d="M140.536 147.33L101.455 150.41V51.1376L140.536 59.9836V147.33Z" stroke="#5596D0" stroke-width="0.5" stroke-miterlimit="10"/>
<path d="M95.8344 141.302L35.122 139.729V85.2767L95.8344 81.0175V141.302Z" stroke="#5596D0" stroke-width="0.5" stroke-miterlimit="10"/>
<path d="M79.4973 129.769L66.4922 129.638V90.781L79.4973 90.0602V129.769Z" stroke="#5596D0" stroke-width="0.5" stroke-miterlimit="10"/>
<path d="M79.4951 129.769L69.0388 129.638V90.6499L79.4951 90.0602V129.769Z" stroke="#5596D0" stroke-width="0.5" stroke-miterlimit="10"/>
<path d="M79.4973 75.2512L66.4922 76.2996V32.9212L79.4973 30.9555V75.2512Z" stroke="#5596D0" stroke-width="0.5" stroke-miterlimit="10"/>
<path d="M79.4951 75.2511L69.0388 76.1029V34.4283L79.4951 32.8556V75.2511Z" stroke="#5596D0" stroke-width="0.5" stroke-miterlimit="10"/>
<path d="M127.532 71.3852L113.939 72.4992V25.6479L127.532 23.6166V71.3852Z" stroke="#5596D0" stroke-width="0.5" stroke-miterlimit="10"/>
<path d="M127.532 71.3852L116.03 72.3026V26.8274L127.532 25.1237V71.3852Z" stroke="#5596D0" stroke-width="0.5" stroke-miterlimit="10"/>
<path d="M133.543 129.769L107.206 129.572V86.9149L133.543 85.4077V129.769Z" stroke="#5596D0" stroke-width="0.5" stroke-miterlimit="10"/>
<path d="M125.113 129.704L116.03 129.638V86.3907L125.113 85.8665V129.704Z" stroke="#5596D0" stroke-width="0.5" stroke-miterlimit="10"/>
<path d="M127.532 34.4939L116.03 36.0666V26.8274L127.532 25.1237V34.4939Z" stroke="#5596D0" stroke-width="0.5" stroke-miterlimit="10"/>
<path d="M79.4951 41.0465L69.0388 42.4226V34.2973L79.4951 32.7247V41.0465Z" stroke="#5596D0" stroke-width="0.5" stroke-miterlimit="10"/>
<path d="M11.1393 133.832L-14.8709 133.438V91.8293L11.1393 90.1911V133.832Z" stroke="#5596D0" stroke-width="0.5" stroke-miterlimit="10"/>
<path d="M11.1393 74.9235L-14.8709 77.2824V35.4112L11.1393 30.8899V74.9235Z" stroke="#5596D0" stroke-width="0.5" stroke-miterlimit="10"/>
<path d="M69.0388 99.3649L79.4951 98.9062V90.0602L69.0388 90.6499V99.3649Z" stroke="#5596D0" stroke-width="0.5" stroke-miterlimit="10"/>
<path d="M133.543 96.6127L109.428 97.6612V86.7838L133.543 85.4077V96.6127Z" stroke="#5596D0" stroke-width="0.5" stroke-miterlimit="10"/>
<path d="M109.428 129.572H107.206V86.9149L109.428 86.7838V129.572Z" stroke="#5596D0" stroke-width="0.5" stroke-miterlimit="10"/>
<path d="M101.455 78.462L13.1642 84.9491V61.4252L101.455 51.1376V78.462Z" stroke="#5596D0" stroke-width="0.5" stroke-miterlimit="10"/>
<path d="M140.536 84.2283L101.455 78.6586V51.1376L140.536 59.9836V84.2283Z" stroke="#5596D0" stroke-width="0.5" stroke-miterlimit="10"/>
<path d="M140.471 139.467L104.331 141.302V81.0175L140.471 85.9319V139.467Z" stroke="#5596D0" stroke-width="0.5" stroke-miterlimit="10"/>
<path d="M55.58 136.78L39.3726 137.305V89.3393L55.58 90.8464V136.78Z" stroke="#5596D0" stroke-width="0.5" stroke-miterlimit="10"/>
<path d="M55.5793 136.78L53.5534 136.846V90.6499L55.5793 90.8465V136.78Z" stroke="#5596D0" stroke-width="0.5" stroke-miterlimit="10"/>
<path d="M53.554 99.3648L39.3726 98.3819V89.3393L53.554 90.6498V99.3648Z" stroke="#5596D0" stroke-width="0.5" stroke-miterlimit="10"/>
<path d="M53.4869 136.78L46.4942 137.042V98.8406L53.4869 99.3648V136.78Z" stroke="#5596D0" stroke-width="0.5" stroke-miterlimit="10"/>
<path d="M95.8344 141.302L35.122 139.729V123.937L95.8344 123.806V141.302Z" stroke="#5596D0" stroke-width="0.5" stroke-miterlimit="10"/>
<path d="M140.601 139.401L104.331 141.236V123.806L140.601 123.937V139.401Z" stroke="#5596D0" stroke-width="0.5" stroke-miterlimit="10"/>
<path d="M140.471 78.5931L101.455 72.3026V51.1376L140.471 59.9181V78.5931Z" stroke="#5596D0" stroke-width="0.5" stroke-miterlimit="10"/>
<path d="M101.455 72.3026L13.1642 79.576V61.4252L101.455 51.1376V72.3026Z" stroke="#5596D0" stroke-width="0.5" stroke-miterlimit="10"/>
<path d="M28.3259 78.331L13.1642 79.576V61.4253L28.3259 59.6561V78.331Z" stroke="#5596D0" stroke-width="0.5" stroke-miterlimit="10"/>
<path d="M45.58 76.9549L28.327 78.331V59.656L45.58 57.6247V76.9549Z" stroke="#5596D0" stroke-width="0.5" stroke-miterlimit="10"/>
<path d="M63.3567 75.4478L45.5808 76.9549V57.6247L63.3567 55.5934V75.4478Z" stroke="#5596D0" stroke-width="0.5" stroke-miterlimit="10"/>
<path d="M81.6534 73.9408L63.3548 75.4479V55.5934L81.6534 53.431V73.9408Z" stroke="#5596D0" stroke-width="0.5" stroke-miterlimit="10"/>
<path d="M35.1137 139.694L82.5453 140.928L35.1137 139.694Z" stroke="#5596D0" stroke-width="0.5" stroke-miterlimit="10"/>
<path d="M101.978 141.302L35.122 139.598L76.7515 138.025L140.143 139.401L101.978 141.302Z" stroke="#5596D0" stroke-width="0.5" stroke-miterlimit="10"/>
<path d="M140.667 78.5931L58.9108 84.2283V34.1008L140.667 21.5853V78.5931Z" stroke="#5596D0" stroke-width="0.5" stroke-miterlimit="10"/>
<path d="M113.938 59.6559L79.4976 63.1288V30.9554L113.938 25.6478V59.6559Z" stroke="#5596D0" stroke-width="0.5" stroke-miterlimit="10"/>
<path d="M188.635 90.6499L140.536 83.7696V21.5853L188.635 38.8187V90.6499Z" stroke="#5596D0" stroke-width="0.5" stroke-miterlimit="10"/>
<path d="M181.316 81.7384L156.221 77.3482V27.2206L181.316 36.1977V81.7384Z" stroke="#5596D0" stroke-width="0.5" stroke-miterlimit="10"/>
<path d="M179.748 81.4107L156.221 77.3481V29.1208L179.748 37.3771V81.4107Z" stroke="#5596D0" stroke-width="0.5" stroke-miterlimit="10"/>
<path d="M167.331 79.2484L156.221 77.3481V29.1208L167.331 32.9869V79.2484Z" stroke="#5596D0" stroke-width="0.5" stroke-miterlimit="10"/>
<path d="M179.748 45.2403L156.221 37.7048V29.1208L179.748 37.3771V45.2403Z" stroke="#5596D0" stroke-width="0.5" stroke-miterlimit="10"/>
<path d="M181.315 130.162L156.939 130.686V86.1286L181.315 89.6015V130.162Z" stroke="#5596D0" stroke-width="0.5" stroke-miterlimit="10"/>
<path d="M156.939 130.686L179.747 130.228V89.4049L156.939 86.1286V130.686Z" stroke="#5596D0" stroke-width="0.5" stroke-miterlimit="10"/>
<path d="M167.33 130.49L156.939 130.686V86.1286L167.33 87.6357V130.49Z" stroke="#5596D0" stroke-width="0.5" stroke-miterlimit="10"/>
<path d="M179.747 99.0373L156.939 96.6783V86.1286L179.747 89.4049V99.0373Z" stroke="#5596D0" stroke-width="0.5" stroke-miterlimit="10"/>
<path d="M232.16 38.2288L223.468 34.3628V23.682L232.16 28.0067V38.2288Z" stroke="#5596D0" stroke-width="0.5" stroke-miterlimit="10"/>
<path d="M232.161 38.2289L227.521 36.1976V25.7134L232.161 28.0068V38.2289Z" stroke="#5596D0" stroke-width="0.5" stroke-miterlimit="10"/>
<path d="M234.056 136.518L223.73 137.173V93.2054L234.056 94.778V136.518Z" stroke="#5596D0" stroke-width="0.5" stroke-miterlimit="10"/>
<path d="M228.893 136.846L223.73 137.173V93.2054L228.893 93.9917V136.846Z" stroke="#5596D0" stroke-width="0.5" stroke-miterlimit="10"/>
<path d="M77.8627 23.6165L67.6677 20.6678V4.41734L77.8627 7.82471V23.6165Z" stroke="#5596D0" stroke-width="0.5" stroke-miterlimit="10"/>
<path d="M60.675 21.5852L67.6677 20.4057V4.41734L60.675 5.85892V21.5852Z" stroke="#5596D0" stroke-width="0.5" stroke-miterlimit="10"/>
<path d="M50.4798 140.057L35.122 139.663V123.937H50.4798V140.057Z" stroke="#5596D0" stroke-width="0.5" stroke-miterlimit="10"/>
<path d="M66.4918 140.515L50.4805 140.122V123.937L66.4918 123.872V140.515Z" stroke="#5596D0" stroke-width="0.5" stroke-miterlimit="10"/>
<path d="M81.2618 140.909L66.4922 140.515V123.872H81.2618V140.909Z" stroke="#5596D0" stroke-width="0.5" stroke-miterlimit="10"/>
<path d="M116.029 140.646L104.331 141.236V123.806L116.029 123.872V140.646Z" stroke="#5596D0" stroke-width="0.5" stroke-miterlimit="10"/>
<path d="M128.185 140.057L116.03 140.646V123.872L128.185 123.937V140.057Z" stroke="#5596D0" stroke-width="0.5" stroke-miterlimit="10"/>
<path d="M118.252 74.9892L101.522 72.3026V51.1376L118.252 54.9381V74.9892Z" stroke="#5596D0" stroke-width="0.5" stroke-miterlimit="10"/>
<path d="M131.322 77.0859L118.252 74.9891V54.9381L131.322 57.8867V77.0859Z" stroke="#5596D0" stroke-width="0.5" stroke-miterlimit="10"/>
<path d="M148.706 25.7134L211.771 16.6052V3.5L148.706 13.7876V25.7134Z" stroke="#5596D0" stroke-width="0.5" stroke-miterlimit="10"/>
<path d="M188.636 92.3536L211.901 91.3052V81.935L188.636 83.2455V92.3536Z" stroke="#5596D0" stroke-width="0.5" stroke-miterlimit="10"/>
<path d="M235.625 95.0402L211.902 91.3052V81.935L235.625 86.6529V95.0402Z" stroke="#5596D0" stroke-width="0.5" stroke-miterlimit="10"/>
<path d="M188.635 130.031L140.536 131.08V83.7696L188.635 90.6498V130.031Z" stroke="#5596D0" stroke-width="0.5" stroke-miterlimit="10"/>
<path d="M188.506 143.661L101.391 150.475V141.302L188.506 136.911V143.661Z" stroke="#5596D0" stroke-width="0.5" stroke-miterlimit="10"/>
<path d="M211.903 144.054L188.507 143.464V136.911L211.903 137.305V144.054Z" stroke="#5596D0" stroke-width="0.5" stroke-miterlimit="10"/>
<path d="M223.731 143.071L211.902 144.119V137.305L223.731 136.649V143.071Z" stroke="#5596D0" stroke-width="0.5" stroke-miterlimit="10"/>
<path d="M30.6138 145.954L-35 143.464V137.305L30.6138 138.943V145.954Z" stroke="#5596D0" stroke-width="0.5" stroke-miterlimit="10"/>
<path d="M101.458 150.41L30.6156 147.527V139.663L101.458 141.498V150.41Z" stroke="#5596D0" stroke-width="0.5" stroke-miterlimit="10"/>
<path d="M129.491 84.4249L65.4455 88.291L35.122 85.2768L101.585 80.6244L129.491 84.4249Z" stroke="#5596D0" stroke-width="0.5" stroke-miterlimit="10"/>
<path d="M143.347 26.6963L212.294 16.6708L243.793 32.4626L181.643 39.8671L143.347 26.6963Z" stroke="#5596D0" stroke-width="0.5" stroke-miterlimit="10" stroke-linejoin="round"/>
<path d="M30.4831 59.3284L30.6138 13.46L-34.9346 26.3032L-35 143.464L30.6138 145.823V147.527L101.456 150.41L188.505 143.464L188.636 26.5653L140.471 6.84187L58.7153 21.3232L30.6138 13.46" stroke="#5596D0" stroke-width="2" stroke-miterlimit="10" stroke-linejoin="round"/>
<path d="M-17.8128 35.4767L11.1383 30.8899V133.832L-17.8128 133.373V35.4767Z" stroke="#5596D0" stroke-width="2" stroke-miterlimit="10" stroke-linejoin="round"/>
<path d="M140.536 59.9836L101.521 51.1376L13.1642 61.4252V84.9491L30.6133 88.291V147.527" stroke="#5596D0" stroke-width="2" stroke-miterlimit="10" stroke-linejoin="round"/>
<path d="M140.471 6.84187L140.733 147.265" stroke="#5596D0" stroke-width="2" stroke-miterlimit="10" stroke-linejoin="round"/>
<path d="M140.471 83.9007L104.331 78.9863V141.302L140.471 139.467" stroke="#5596D0" stroke-width="2" stroke-miterlimit="10" stroke-linejoin="round"/>
<path d="M35.122 83.311L95.8344 78.9207V141.302L35.122 139.729V83.311Z" stroke="#5596D0" stroke-width="2" stroke-miterlimit="10" stroke-linejoin="round"/>
<path d="M13.1642 84.949L30.6132 83.6385" stroke="#5596D0" stroke-width="2" stroke-miterlimit="10" stroke-linejoin="round"/>
<path d="M30.6156 94.3193V83.6385" stroke="#5596D0" stroke-width="2" stroke-miterlimit="10" stroke-linejoin="round"/>
<path d="M101.522 51.1376V150.41" stroke="#5596D0" stroke-width="2" stroke-miterlimit="10" stroke-linejoin="round"/>
<path d="M13.1642 79.5759L101.455 72.3025L140.471 78.593" stroke="#5596D0" stroke-width="2" stroke-miterlimit="10" stroke-linejoin="round"/>
<path d="M66.4922 55.2002V32.9212L79.4973 30.9555V53.6931" stroke="#5596D0" stroke-width="2" stroke-miterlimit="10" stroke-linejoin="round"/>
<path d="M113.939 54.1518V25.6479L127.532 23.6166L127.401 57.166" stroke="#5596D0" stroke-width="2" stroke-miterlimit="10" stroke-linejoin="round"/>
<path d="M156.221 27.2206L181.316 36.1977V81.7384L156.221 77.3482V27.2206Z" stroke="#5596D0" stroke-width="2" stroke-miterlimit="10" stroke-linejoin="round"/>
<path d="M156.939 130.686V86.1286L181.315 89.6015V130.162L156.939 130.686Z" stroke="#5596D0" stroke-width="2" stroke-miterlimit="10" stroke-linejoin="round"/>
<path d="M155.501 13.0013L211.77 3.5L243.792 21.5197V32.4626L234.055 33.6421V39.0807L235.623 39.736V95.0401L234.055 94.778V136.518H235.623V142.022L211.9 144.119L188.504 143.464" stroke="#5596D0" stroke-width="2" stroke-miterlimit="10" stroke-linejoin="round"/>
<path d="M211.771 3.5V144.119" stroke="#5596D0" stroke-width="2" stroke-miterlimit="10" stroke-linejoin="round"/>
<path d="M-17.8128 92.0259L11.1383 90.1911" stroke="#5596D0" stroke-width="2" stroke-miterlimit="10" stroke-linejoin="round"/>
<path d="M11.1383 74.9236L-17.8128 77.5446" stroke="#5596D0" stroke-width="2" stroke-miterlimit="10" stroke-linejoin="round"/>
<path d="M35.122 123.937L95.8344 123.806" stroke="#5596D0" stroke-width="2" stroke-miterlimit="10" stroke-linejoin="round"/>
<path d="M104.331 123.806L140.601 123.937" stroke="#5596D0" stroke-width="2" stroke-miterlimit="10" stroke-linejoin="round"/>
<path d="M273.144 86.7352L263.377 87.0829C262.163 87.1408 261.181 85.808 261.181 84.1276V57.0663C261.181 55.3858 262.163 54.111 263.377 54.2269L273.144 55.0961C274.242 55.212 275.167 56.5448 275.167 58.1673V83.8378C275.167 85.3445 274.242 86.6773 273.144 86.7352Z" stroke="#5596D0" stroke-width="0.5" stroke-miterlimit="10"/>
<path d="M271.468 64.5994C271.468 68.7136 269.445 71.9007 266.902 71.7848C264.301 71.611 262.163 68.0183 262.163 63.7302C262.163 59.4421 264.301 56.1971 266.902 56.5447C269.445 56.8924 271.468 60.4852 271.468 64.5994Z" stroke="#5596D0" stroke-width="0.5" stroke-miterlimit="10"/>
<path d="M267.48 49.4752L265.053 47.1573C264.359 46.5199 264.07 45.2451 264.359 44.202L265.573 39.856C265.804 39.0447 266.324 38.6391 266.844 38.755L279.732 41.3626C280.194 41.4785 280.657 42.058 280.888 42.8692L281.87 47.0994C282.102 48.1424 281.87 49.2434 281.292 49.707L278.923 51.3295L273.433 49.5331L267.48 49.4752Z" stroke="#5596D0" stroke-width="0.5" stroke-miterlimit="10"/>
<path d="M265.111 35.3362L280.426 38.4653C281.004 38.5812 281.466 39.2186 281.64 40.0878L285.396 56.1392C285.454 56.4289 285.512 56.7186 285.512 57.0084V106.09C285.512 107.306 284.934 108.349 284.24 108.465L260.661 111.247C259.794 111.363 259.042 110.32 259.042 108.987V53.2998C259.042 52.9521 259.1 52.6624 259.158 52.3726L263.666 36.4951C263.897 35.6259 264.475 35.1623 265.111 35.3362Z" stroke="#5596D0" stroke-width="0.5" stroke-miterlimit="10"/>
<path d="M260.661 111.305C259.794 111.421 259.042 110.378 259.042 109.045V53.3577C259.042 53.0101 259.1 52.7203 259.158 52.4306L263.666 36.5531C263.897 35.6839 264.475 35.2203 265.111 35.3941" stroke="#5596D0" stroke-width="2" stroke-miterlimit="10"/>
<path d="M298.688 76.3627C298.688 78.217 297.822 79.6657 296.724 79.6657C295.625 79.6078 294.759 78.1011 294.759 76.1889C294.759 74.2766 295.683 72.8279 296.724 72.8859C297.822 72.9438 298.688 74.5084 298.688 76.3627Z" stroke="#5596D0" stroke-width="0.5" stroke-miterlimit="10"/>
<path d="M297.88 76.3048C297.88 77.4058 297.36 78.275 296.724 78.3329C296.088 78.3329 295.51 77.3478 295.51 76.2468C295.51 75.1458 296.03 74.2187 296.724 74.2187C297.36 74.2766 297.88 75.2038 297.88 76.3048Z" stroke="#5596D0" stroke-width="0.5" stroke-miterlimit="10"/>
<path d="M282.102 48.0845L279.732 45.6507C279.039 45.0133 278.75 43.6225 279.039 42.5215L280.252 38.0017C280.484 37.1904 281.004 36.7268 281.524 36.8427L294.238 39.6821C294.701 39.798 295.163 40.4355 295.394 41.2467L296.377 45.6507C296.608 46.7517 296.377 47.9106 295.799 48.3742L293.487 50.0547L288.054 48.0845H282.102Z" stroke="#5596D0" stroke-width="2" stroke-miterlimit="10"/>
<path d="M296.55 110.551L277.652 113.217V117.389L296.55 114.376V110.551Z" stroke="#5596D0" stroke-width="0.5" stroke-miterlimit="10"/>
<path d="M279.039 110.725L277.594 110.899C276.785 111.015 276.149 110.03 276.149 108.813V91.9505C276.149 90.6756 276.785 89.6326 277.594 89.5746L298.284 88.5895" stroke="#5596D0" stroke-width="0.5" stroke-miterlimit="10"/>
<path d="M292.678 87.3147L283.027 87.7203C281.813 87.7782 280.83 86.3296 280.83 84.5911V55.6755C280.83 53.8792 281.813 52.5464 283.027 52.6623L292.678 53.6474C293.776 53.7633 294.643 55.212 294.643 56.8924V84.1855C294.643 85.866 293.776 87.2567 292.678 87.3147Z" stroke="#5596D0" stroke-width="0.5" stroke-miterlimit="10"/>
<path d="M300.191 108.234C300.191 109.508 299.671 109.798 298.92 109.914L276.092 112.927C275.225 113.043 274.531 112 274.531 110.551V53.0679C274.531 52.7202 274.589 52.3725 274.647 52.0828L279.039 35.6838C279.27 34.8146 279.79 34.351 280.426 34.4669L295.221 37.7699C295.741 37.8858 296.204 38.5811 296.377 39.4503L300.018 55.9653C300.076 56.255 300.134 56.5447 300.134 56.8924V88.5895" stroke="#5596D0" stroke-width="0.5" stroke-miterlimit="10"/>
<path d="M275.976 113.507C275.572 113.507 275.225 113.391 274.936 113.101C274.358 112.58 274.011 111.652 274.011 110.551V53.0679C274.011 52.6044 274.069 52.2567 274.184 51.909L278.519 35.5679C278.692 34.9305 279.039 34.409 279.501 34.1192C279.848 33.8875 280.253 33.8875 280.6 33.9454L295.048 37.1904L295.915 38.5232L280.311 35.1043C280.195 35.1043 280.137 35.1043 280.079 35.1043C279.906 35.2202 279.733 35.51 279.617 35.8577L275.225 52.2567C275.167 52.4885 275.109 52.7782 275.109 53.0679V110.551C275.109 111.247 275.34 111.884 275.629 112.174C275.803 112.348 275.918 112.29 275.976 112.29L276.149 113.449C276.092 113.507 276.034 113.507 275.976 113.507Z" fill="#5596D0"/>
<path d="M296.666 92.7037L295.915 92.7616C295.741 92.7616 295.568 92.4719 295.568 92.1242V91.7186C295.568 91.3709 295.741 91.0812 295.915 91.0812L296.666 91.0232C296.839 91.0232 297.013 91.3129 297.013 91.6606V92.0663C297.013 92.356 296.839 92.7037 296.666 92.7037Z" stroke="#5596D0" stroke-width="0.5" stroke-miterlimit="10"/>
<path d="M298.746 92.5299L297.995 92.5879C297.822 92.5879 297.648 92.2981 297.648 92.0084V91.6027C297.648 91.2551 297.822 90.9653 297.995 90.9653L298.746 90.9074C298.92 90.9074 299.093 91.1971 299.093 91.4869V91.8925C299.093 92.2981 298.92 92.5299 298.746 92.5299Z" stroke="#5596D0" stroke-width="0.5" stroke-miterlimit="10"/>
<path d="M300.769 92.4719L300.076 92.5299C299.902 92.5299 299.729 92.2402 299.729 91.9504V91.5448C299.729 91.1971 299.902 90.9074 300.076 90.9074L300.769 90.8494C300.943 90.8494 301.116 91.1391 301.116 91.4289V91.8345C301.116 92.1822 300.943 92.4719 300.769 92.4719Z" stroke="#5596D0" stroke-width="0.5" stroke-miterlimit="10"/>
<path d="M296.666 95.3693L295.915 95.4272C295.741 95.4272 295.568 95.1375 295.568 94.8478V94.4421C295.568 94.0945 295.741 93.8047 295.915 93.8047L296.666 93.7468C296.839 93.7468 297.013 94.0365 297.013 94.3262V94.7319C297.013 95.0216 296.839 95.3693 296.666 95.3693Z" stroke="#5596D0" stroke-width="0.5" stroke-miterlimit="10"/>
<path d="M298.746 95.2534L297.995 95.3113C297.822 95.3113 297.648 95.0216 297.648 94.7318V94.3262C297.648 93.9785 297.822 93.6888 297.995 93.6888L298.746 93.6308C298.92 93.6308 299.093 93.9206 299.093 94.2103V94.6159C299.093 94.9636 298.92 95.2534 298.746 95.2534Z" stroke="#5596D0" stroke-width="0.5" stroke-miterlimit="10"/>
<path d="M300.769 95.0795L300.076 95.1375C299.902 95.1375 299.729 94.8478 299.729 94.558V94.1524C299.729 93.8047 299.902 93.515 300.076 93.515L300.769 93.457C300.943 93.457 301.116 93.7468 301.116 94.0365V94.4421C301.116 94.8478 300.943 95.0795 300.769 95.0795Z" stroke="#5596D0" stroke-width="0.5" stroke-miterlimit="10"/>
<path d="M296.666 98.0349L295.915 98.0928C295.741 98.0928 295.568 97.8031 295.568 97.5133V97.1077C295.568 96.76 295.741 96.4703 295.915 96.4703L296.666 96.4124C296.839 96.4124 297.013 96.7021 297.013 96.9918V97.3975C297.013 97.7451 296.839 98.0349 296.666 98.0349Z" stroke="#5596D0" stroke-width="0.5" stroke-miterlimit="10"/>
<path d="M298.746 97.9189L297.995 97.9769C297.822 97.9769 297.648 97.7451 297.648 97.3974V96.9918C297.648 96.6441 297.822 96.3544 297.995 96.3544L298.746 96.2964C298.92 96.2964 299.093 96.5282 299.093 96.8759V97.2815C299.093 97.5713 298.92 97.861 298.746 97.9189Z" stroke="#5596D0" stroke-width="0.5" stroke-miterlimit="10"/>
<path d="M300.769 97.7452L300.076 97.8031C299.902 97.8031 299.729 97.5713 299.729 97.2236V96.818C299.729 96.4703 299.902 96.1806 300.076 96.1806L300.769 96.1226C300.943 96.1226 301.116 96.3544 301.116 96.7021V97.1077C301.116 97.4554 300.943 97.7452 300.769 97.7452Z" stroke="#5596D0" stroke-width="0.5" stroke-miterlimit="10"/>
<path d="M296.608 100.642L295.857 100.7C295.684 100.7 295.51 100.469 295.51 100.121V99.7153C295.51 99.3676 295.684 99.0779 295.857 99.0199L296.608 98.962C296.782 98.962 296.955 99.1938 296.955 99.5415V99.9471C296.955 100.353 296.839 100.585 296.608 100.642Z" stroke="#5596D0" stroke-width="0.5" stroke-miterlimit="10"/>
<path d="M282.911 104.641L281.755 104.757C281.524 104.757 281.351 104.467 281.351 104.061V104.003C281.351 103.656 281.524 103.308 281.755 103.308L282.911 103.192C283.142 103.192 283.316 103.482 283.316 103.887V103.945C283.258 104.293 283.084 104.641 282.911 104.641Z" stroke="#5596D0" stroke-width="0.5" stroke-miterlimit="10"/>
<path d="M285.858 104.409L284.702 104.525C284.471 104.525 284.298 104.235 284.298 103.83V103.772C284.298 103.424 284.471 103.076 284.702 103.076L285.858 102.96C286.09 102.96 286.263 103.25 286.263 103.656V103.714C286.263 104.061 286.09 104.351 285.858 104.409Z" stroke="#5596D0" stroke-width="0.5" stroke-miterlimit="10"/>
<path d="M288.748 104.119L287.65 104.235C287.419 104.235 287.246 104.003 287.246 103.598V103.54C287.246 103.192 287.419 102.844 287.65 102.844L288.748 102.729C288.98 102.729 289.153 102.96 289.153 103.366V103.424C289.153 103.772 288.98 104.119 288.748 104.119Z" stroke="#5596D0" stroke-width="0.5" stroke-miterlimit="10"/>
<path d="M291.118 107.19L289.615 107.364C289.384 107.364 289.21 107.133 289.21 106.785V105.858C289.21 105.51 289.384 105.162 289.615 105.162L291.118 104.988C291.349 104.988 291.522 105.22 291.522 105.568V106.495C291.464 106.843 291.291 107.19 291.118 107.19Z" stroke="#5596D0" stroke-width="0.5" stroke-miterlimit="10"/>
<path d="M294.065 106.785L292.793 106.959C292.562 106.959 292.389 106.727 292.389 106.379V105.452C292.389 105.104 292.562 104.815 292.793 104.757L294.065 104.583C294.296 104.583 294.469 104.815 294.469 105.162V106.089C294.412 106.495 294.296 106.785 294.065 106.785Z" stroke="#5596D0" stroke-width="0.5" stroke-miterlimit="10"/>
<path d="M297.07 106.379L295.799 106.553C295.626 106.553 295.452 106.321 295.452 105.974V105.046C295.452 104.699 295.626 104.409 295.799 104.351L297.07 104.235C297.244 104.235 297.417 104.467 297.417 104.815V105.742C297.417 106.032 297.244 106.321 297.07 106.379Z" stroke="#5596D0" stroke-width="0.5" stroke-miterlimit="10"/>
<path d="M299.902 105.916L298.688 106.089C298.515 106.089 298.342 105.858 298.342 105.51V104.583C298.342 104.235 298.515 103.945 298.688 103.945L299.902 103.83C300.075 103.83 300.249 104.061 300.249 104.409V105.278C300.191 105.568 300.075 105.916 299.902 105.916Z" stroke="#5596D0" stroke-width="0.5" stroke-miterlimit="10"/>
<path d="M291.58 103.83L290.482 103.945C290.251 103.945 290.077 103.714 290.077 103.366V103.308C290.077 102.96 290.251 102.613 290.482 102.613L291.58 102.497C291.811 102.497 291.985 102.729 291.985 103.076V103.134C291.985 103.482 291.811 103.772 291.58 103.83Z" stroke="#5596D0" stroke-width="0.5" stroke-miterlimit="10"/>
<path d="M298.746 100.585L297.995 100.642C297.822 100.642 297.648 100.411 297.648 100.063V99.6574C297.648 99.3097 297.822 99.0199 297.995 99.0199L298.746 98.962C298.92 98.962 299.093 99.1938 299.093 99.5414V99.9471C299.093 100.237 298.92 100.527 298.746 100.585Z" stroke="#5596D0" stroke-width="0.5" stroke-miterlimit="10"/>
<path d="M300.769 100.411L300.076 100.469C299.902 100.469 299.729 100.237 299.729 99.8891V99.4834C299.729 99.1358 299.902 98.846 300.076 98.846L300.769 98.7881C300.943 98.7881 301.116 99.0199 301.116 99.3676V99.7732C301.116 100.063 300.943 100.411 300.769 100.411Z" stroke="#5596D0" stroke-width="0.5" stroke-miterlimit="10"/>
<path d="M294.181 100.99L281.64 102.091C281.177 102.149 280.83 101.57 280.83 100.758V92.5878C280.83 91.8345 281.177 91.1971 281.64 91.1971L294.181 90.7914C294.585 90.7914 294.874 91.313 294.874 92.0663V99.5994C294.932 100.295 294.585 100.932 294.181 100.99Z" stroke="#5596D0" stroke-width="0.5" stroke-miterlimit="10"/>
<path d="M281.871 107.654C281.871 108.118 281.64 108.523 281.351 108.523C281.062 108.581 280.83 108.234 280.83 107.77C280.83 107.306 281.062 106.901 281.351 106.901C281.64 106.843 281.871 107.133 281.871 107.654Z" stroke="#5596D0" stroke-width="0.5" stroke-miterlimit="10"/>
<path d="M283.778 107.422C283.778 107.886 283.547 108.291 283.258 108.291C282.969 108.349 282.738 108.002 282.738 107.538C282.738 107.075 282.969 106.669 283.258 106.669C283.547 106.611 283.778 106.959 283.778 107.422Z" stroke="#5596D0" stroke-width="0.5" stroke-miterlimit="10"/>
<path d="M285.685 107.19C285.685 107.654 285.454 108.06 285.165 108.06C284.876 108.118 284.645 107.77 284.645 107.306C284.645 106.843 284.876 106.437 285.165 106.437C285.454 106.437 285.685 106.785 285.685 107.19Z" stroke="#5596D0" stroke-width="0.5" stroke-miterlimit="10"/>
<path d="M287.535 106.959C287.535 107.422 287.303 107.77 287.072 107.828C286.783 107.886 286.61 107.538 286.61 107.075C286.61 106.611 286.841 106.263 287.072 106.205C287.303 106.205 287.535 106.553 287.535 106.959Z" stroke="#5596D0" stroke-width="0.5" stroke-miterlimit="10"/>
<path d="M301.231 76.3048C301.231 78.1591 300.364 79.6657 299.266 79.6077C298.168 79.5498 297.301 78.0432 297.301 76.1309C297.301 74.2187 298.226 72.77 299.266 72.8279C300.422 72.8859 301.231 74.4504 301.231 76.3048Z" stroke="#5596D0" stroke-width="0.5" stroke-miterlimit="10"/>
<path d="M300.48 76.3048C300.48 77.4058 299.96 78.3329 299.324 78.3329C298.689 78.3329 298.111 77.3478 298.111 76.2468C298.111 75.1458 298.631 74.2187 299.324 74.2187C299.96 74.2187 300.48 75.1458 300.48 76.3048Z" stroke="#5596D0" stroke-width="0.5" stroke-miterlimit="10"/>
<path d="M301.058 108.407L280.483 111.189C279.674 111.305 279.039 110.32 279.039 109.045V92.0664C279.039 90.7915 279.674 89.7485 280.483 89.6905L301.058 88.7054C301.694 88.6475 302.271 89.5746 302.271 90.7336V106.148C302.271 107.364 301.751 108.349 301.058 108.407Z" stroke="#5596D0" stroke-width="2" stroke-miterlimit="10"/>
<path d="M296.088 87.1408L286.494 87.5464C285.28 87.6043 284.298 86.1557 284.298 84.3593V55.3278C284.298 53.5315 285.28 52.1987 286.494 52.3146L296.088 53.3576C297.186 53.4735 298.053 54.9222 298.053 56.6027V84.0116C298.053 85.6921 297.128 87.0828 296.088 87.1408Z" stroke="#5596D0" stroke-width="0.5" stroke-miterlimit="10"/>
<path d="M286.436 88.1259C285.858 88.1259 285.338 87.8942 284.876 87.4885C284.182 86.7932 283.72 85.6342 283.72 84.4173V55.3859C283.72 54.169 284.124 53.01 284.876 52.3726C285.338 51.967 285.916 51.7352 286.552 51.7931L295.683 52.7782L296.55 53.5316L297.186 54.111L286.436 52.9521C286.147 52.9521 285.916 53.01 285.685 53.2418C285.223 53.6474 284.934 54.5167 284.934 55.3859V84.4173C284.934 85.3445 285.223 86.2137 285.743 86.6773C285.916 86.8511 286.205 87.025 286.494 87.025L296.781 86.7932L297.244 86.8511L296.145 87.7783L286.552 88.1839C286.494 88.126 286.436 88.1259 286.436 88.1259Z" fill="#5596D0"/>
<path d="M292.332 63.6723C292.332 68.0762 290.367 71.4951 287.824 71.3792C285.281 71.2054 283.143 67.3229 283.143 62.7451C283.143 58.1673 285.281 54.6905 287.824 55.0961C290.367 55.4438 292.332 59.2683 292.332 63.6723Z" stroke="#5596D0" stroke-width="0.5" stroke-miterlimit="10"/>
<path d="M295.857 63.6143C295.857 67.7865 293.892 71.0315 291.349 70.8577C288.806 70.6839 286.668 67.0332 286.668 62.6872C286.668 58.3411 288.806 55.0961 291.349 55.4438C293.892 55.8494 295.857 59.5001 295.857 63.6143Z" stroke="#5596D0" stroke-width="2" stroke-miterlimit="10"/>
<path d="M288.69 62.1077C288.69 64.1938 287.708 65.8163 286.494 65.7004C285.28 65.5845 284.298 63.7882 284.298 61.6441C284.298 59.5001 285.28 57.9355 286.494 58.1094C287.708 58.2253 288.69 60.0216 288.69 62.1077Z" stroke="#5596D0" stroke-width="0.5" stroke-miterlimit="10"/>
<path d="M287.823 62.1656C287.823 63.3245 287.245 64.3096 286.552 64.2517C285.858 64.1937 285.223 63.1507 285.223 61.9338C285.223 60.7169 285.8 59.7898 286.552 59.8477C287.245 59.9636 287.823 61.0066 287.823 62.1656Z" stroke="#5596D0" stroke-width="0.5" stroke-miterlimit="10"/>
<path d="M294.354 62.1656C294.354 64.1938 293.372 65.7004 292.216 65.5845C291.002 65.4686 290.02 63.7302 290.02 61.702C290.02 59.6739 291.002 58.1093 292.216 58.2832C293.372 58.3991 294.354 60.1954 294.354 62.1656Z" stroke="#5596D0" stroke-width="2" stroke-miterlimit="10"/>
<path d="M293.487 62.0498C293.487 63.2087 292.909 64.1938 292.216 64.1359C291.522 64.0779 290.887 63.0349 290.887 61.818C290.887 60.6011 291.465 59.6739 292.216 59.7319C292.909 59.7898 293.487 60.8908 293.487 62.0498Z" stroke="#5596D0" stroke-width="0.5" stroke-miterlimit="10"/>
<path d="M277.594 113.217L260.083 111.189" stroke="#5596D0" stroke-width="2" stroke-miterlimit="10"/>
<path d="M259.158 52.3726L274.531 53.0679" stroke="#5596D0" stroke-width="2" stroke-miterlimit="10"/>
<path d="M265.111 35.3362L280.426 34.5249" stroke="#5596D0" stroke-width="2" stroke-miterlimit="10"/>
<path d="M266.324 38.6971L281.524 36.7848" stroke="#5596D0" stroke-width="0.5" stroke-miterlimit="10"/>
<path d="M267.48 49.4753L282.102 48.0845" stroke="#5596D0" stroke-width="0.5" stroke-miterlimit="10"/>
<path d="M278.981 51.2716L293.488 49.9967" stroke="#5596D0" stroke-width="0.5" stroke-miterlimit="10"/>
<path d="M294.238 39.6242L279.732 41.3047" stroke="#5596D0" stroke-width="0.5" stroke-miterlimit="10"/>
<path d="M299.266 72.8279L296.723 72.8858" stroke="#5596D0" stroke-width="0.5" stroke-miterlimit="10"/>
<path d="M299.266 79.6077H296.723" stroke="#5596D0" stroke-width="0.5" stroke-miterlimit="10"/>
<path d="M277.19 110.899L280.137 111.479" stroke="#5596D0" stroke-width="0.5" stroke-miterlimit="10"/>
<path d="M291.176 55.0382H287.188" stroke="#5596D0" stroke-width="0.5" stroke-miterlimit="10"/>
<path d="M291.176 71.3792H287.188" stroke="#5596D0" stroke-width="0.5" stroke-miterlimit="10"/>
<path d="M292.678 65.9322H287.188" stroke="#5596D0" stroke-width="0.5" stroke-miterlimit="10"/>
<path d="M292.678 58.1093H287.188" stroke="#5596D0" stroke-width="0.5" stroke-miterlimit="10"/>
<path d="M272.277 102.207C272.277 105.626 270.139 108.234 267.596 107.944C265.053 107.712 263.03 104.757 263.03 101.454C263.03 98.1508 265.053 95.5432 267.596 95.7171C270.139 95.833 272.277 98.7882 272.277 102.207Z" stroke="#5596D0" stroke-width="0.5" stroke-miterlimit="10"/>
<path d="M269.33 102.497C269.33 105.974 267.191 108.581 264.648 108.292C262.105 108.002 260.083 105.104 260.083 101.744C260.083 98.3826 262.105 95.775 264.648 95.9488C267.191 96.0647 269.33 99.02 269.33 102.497Z" stroke="#5596D0" stroke-width="2" stroke-miterlimit="10"/>
<path d="M264.475 95.8908L267.538 95.717" stroke="#5596D0" stroke-width="0.5" stroke-miterlimit="10"/>
<path d="M266.035 96.2965L268.867 96.1226" stroke="#5596D0" stroke-width="0.5" stroke-miterlimit="10"/>
<path d="M266.96 96.76L269.792 96.5862" stroke="#5596D0" stroke-width="0.5" stroke-miterlimit="10"/>
<path d="M267.538 97.3974L270.37 97.2236" stroke="#5596D0" stroke-width="0.5" stroke-miterlimit="10"/>
<path d="M268.116 98.2088L271.121 97.977" stroke="#5596D0" stroke-width="0.5" stroke-miterlimit="10"/>
<path d="M268.752 99.0779L271.584 98.904" stroke="#5596D0" stroke-width="0.5" stroke-miterlimit="10"/>
<path d="M268.867 100.063L271.873 99.8892" stroke="#5596D0" stroke-width="0.5" stroke-miterlimit="10"/>
<path d="M269.272 101.106L272.104 100.932" stroke="#5596D0" stroke-width="0.5" stroke-miterlimit="10"/>
<path d="M269.272 102.207L272.104 102.033" stroke="#5596D0" stroke-width="0.5" stroke-miterlimit="10"/>
<path d="M269.272 103.308L272.104 103.076" stroke="#5596D0" stroke-width="0.5" stroke-miterlimit="10"/>
<path d="M268.983 104.409L271.815 104.235" stroke="#5596D0" stroke-width="0.5" stroke-miterlimit="10"/>
<path d="M268.578 105.626L271.41 105.452" stroke="#5596D0" stroke-width="0.5" stroke-miterlimit="10"/>
<path d="M268.405 106.437L271.237 106.205" stroke="#5596D0" stroke-width="0.5" stroke-miterlimit="10"/>
<path d="M267.711 107.133L270.543 106.959" stroke="#5596D0" stroke-width="0.5" stroke-miterlimit="10"/>
<path d="M266.96 107.596L269.792 107.422" stroke="#5596D0" stroke-width="0.5" stroke-miterlimit="10"/>
<path d="M265.92 108.176L268.751 108.002" stroke="#5596D0" stroke-width="0.5" stroke-miterlimit="10"/>
<path d="M263.03 111.537L277.594 113.217V117.389L263.03 115.477V111.537Z" stroke="#5596D0" stroke-width="0.5" stroke-miterlimit="10"/>
<path d="M291.291 116.23H270.486V120.113H291.291V116.23Z" stroke="#5596D0" stroke-width="2" stroke-miterlimit="10" stroke-linejoin="bevel"/>
<path d="M291.291 120.171H270.486V124.053H291.291V120.171Z" stroke="#5596D0" stroke-width="2" stroke-miterlimit="10" stroke-linejoin="bevel"/>
<path d="M282.564 124.111H279.27V124.922H282.564V124.111Z" stroke="#5596D0" stroke-width="2" stroke-miterlimit="10" stroke-linejoin="bevel"/>
<path d="M308.109 120.808L310.421 119.707L318.974 135.469L295.337 146.537L286.783 130.775L293.834 127.472L291.291 124.053" stroke="#5596D0" stroke-width="2" stroke-miterlimit="10" stroke-linejoin="bevel"/>
<path d="M291.291 116.23L298.342 125.328" stroke="#5596D0" stroke-width="2" stroke-miterlimit="10" stroke-linejoin="bevel"/>
<path d="M308.108 120.808L293.833 127.472L302.445 143.234" stroke="#5596D0" stroke-width="2" stroke-miterlimit="10" stroke-linejoin="bevel"/>
<path d="M291.406 128.631L300.076 144.335" stroke="#5596D0" stroke-width="2" stroke-miterlimit="10" stroke-linejoin="bevel"/>
<path d="M304.872 137.091L310.941 134.252C311.114 134.194 311.345 134.252 311.403 134.426L311.692 134.889C311.808 135.063 311.692 135.295 311.519 135.411L305.508 138.192C305.335 138.25 305.161 138.192 305.046 138.076L304.757 137.613C304.641 137.439 304.699 137.149 304.872 137.091Z" stroke="#5596D0" stroke-width="2" stroke-miterlimit="10" stroke-linejoin="bevel"/>
<path d="M297.706 145.436L310.305 168.557" stroke="#5596D0" stroke-width="2" stroke-miterlimit="10" stroke-linejoin="bevel"/>
<path d="M303.774 142.596L317.991 168.73" stroke="#5596D0" stroke-width="2" stroke-miterlimit="10" stroke-linejoin="bevel"/>
<path d="M310.074 139.641L325.851 168.73" stroke="#5596D0" stroke-width="2" stroke-miterlimit="10" stroke-linejoin="bevel"/>
<path d="M253.667 120.808L251.356 119.707L242.745 135.469L266.44 146.537L274.993 130.775L267.885 127.472L270.485 124.053" stroke="#5596D0" stroke-width="2" stroke-miterlimit="10" stroke-linejoin="bevel"/>
<path d="M253.667 120.808L267.884 127.472L259.331 143.234" stroke="#5596D0" stroke-width="2" stroke-miterlimit="10" stroke-linejoin="bevel"/>
<path d="M270.37 128.631L261.701 144.335" stroke="#5596D0" stroke-width="2" stroke-miterlimit="10" stroke-linejoin="bevel"/>
<path d="M256.904 137.091L250.835 134.252C250.662 134.194 250.431 134.252 250.373 134.426L250.084 134.889C249.968 135.063 250.084 135.295 250.257 135.411L256.268 138.192C256.441 138.25 256.615 138.192 256.73 138.076L257.019 137.613C257.135 137.439 257.077 137.149 256.904 137.091Z" stroke="#5596D0" stroke-width="2" stroke-miterlimit="10" stroke-linejoin="bevel"/>
<path d="M264.012 145.436L251.356 168.73" stroke="#5596D0" stroke-width="2" stroke-miterlimit="10" stroke-linejoin="bevel"/>
<path d="M258.002 142.596L243.785 168.73" stroke="#5596D0" stroke-width="2" stroke-miterlimit="10" stroke-linejoin="bevel"/>
<path d="M251.702 139.641L235.867 168.73" stroke="#5596D0" stroke-width="2" stroke-miterlimit="10" stroke-linejoin="bevel"/>
<path d="M270.485 116.23L263.377 125.386" stroke="#5596D0" stroke-width="2" stroke-miterlimit="10" stroke-linejoin="bevel"/>
<path d="M272.855 134.831H288.979" stroke="#5596D0" stroke-width="2" stroke-miterlimit="10" stroke-linejoin="bevel"/>
<path d="M271.352 168.73V137.439" stroke="#5596D0" stroke-width="0.5" stroke-miterlimit="10" stroke-linejoin="bevel"/>
<path d="M277.651 134.831V168.73" stroke="#5596D0" stroke-width="0.5" stroke-miterlimit="10" stroke-linejoin="bevel"/>
<path d="M290.366 168.73V137.439" stroke="#5596D0" stroke-width="0.5" stroke-miterlimit="10" stroke-linejoin="bevel"/>
<path d="M284.066 134.831V168.73" stroke="#5596D0" stroke-width="0.5" stroke-miterlimit="10" stroke-linejoin="bevel"/>
<path d="M245.634 136.802L228.296 168.73" stroke="#5596D0" stroke-width="2" stroke-miterlimit="10" stroke-linejoin="bevel"/>
<path d="M180.058 149.667C180.058 149.667 176.202 152.224 176.202 159.704" stroke="#5596D0" stroke-width="0.5" stroke-miterlimit="10"/>
<path d="M170.804 153.013C170.804 153.013 173.636 155.976 173.565 159.872" stroke="#5596D0" stroke-width="0.5" stroke-miterlimit="10"/>
<path d="M179.511 154.256C179.511 154.256 177.107 156.263 177.583 160.565" stroke="#5596D0" stroke-width="0.5" stroke-miterlimit="10"/>
<path d="M167.685 154.688C169.208 156.934 168.827 161.235 168.827 161.235" stroke="#5596D0" stroke-width="0.5" stroke-miterlimit="10"/>
<path d="M193.555 159.656C193.245 156.836 195.554 153.466 196.553 152.654" stroke="#5596D0" stroke-width="0.5" stroke-miterlimit="10"/>
<path d="M187.056 159.777C187.056 159.777 187.198 152.728 183.462 150.362" stroke="#5596D0" stroke-width="0.5" stroke-miterlimit="10"/>
<path d="M189.674 160.446C189.674 160.446 188.984 154.949 192.935 152.846" stroke="#5596D0" stroke-width="0.5" stroke-miterlimit="10"/>
<path d="M127.911 146.024C127.911 146.024 130.505 148.174 129.982 152.763" stroke="#5596D0" stroke-width="0.5" stroke-miterlimit="10"/>
<path d="M126.341 149.964C124.699 152.354 125.104 156.942 125.104 156.942" stroke="#5596D0" stroke-width="0.5" stroke-miterlimit="10"/>
<path d="M122.439 160.672C122.772 157.661 120.297 154.076 119.226 153.216" stroke="#5596D0" stroke-width="0.5" stroke-miterlimit="10"/>
</g>
</svg>
