<svg width="65" height="66" viewBox="0 0 65 66" fill="none" xmlns="http://www.w3.org/2000/svg">
<rect y="0.5" width="65" height="65" rx="10" fill="#5596D0"/>
<rect x="27.625" y="9.4375" width="8.125" height="11.375" rx="2" stroke="white" stroke-width="2"/>
<path d="M26.8125 24.6875C26.2602 24.6875 25.8125 25.1352 25.8125 25.6875C25.8125 26.2398 26.2602 26.6875 26.8125 26.6875L26.8125 24.6875ZM36.5625 26.6875C37.1148 26.6875 37.5625 26.2398 37.5625 25.6875C37.5625 25.1352 37.1148 24.6875 36.5625 24.6875V26.6875ZM26.8125 26.6875H36.5625V24.6875H26.8125L26.8125 26.6875Z" fill="white"/>
<path d="M32.6875 30.1562C32.6875 29.604 32.2398 29.1562 31.6875 29.1562C31.1352 29.1562 30.6875 29.604 30.6875 30.1562H32.6875ZM30.6875 52.9062C30.6875 53.4585 31.1352 53.9062 31.6875 53.9062C32.2398 53.9062 32.6875 53.4585 32.6875 52.9062H30.6875ZM30.6875 30.1562V52.9062H32.6875V30.1562H30.6875Z" fill="white"/>
<path d="M37.4776 29.753C37.2549 29.2476 36.6646 29.0185 36.1592 29.2412C35.6539 29.4639 35.4247 30.0541 35.6474 30.5595L37.4776 29.753ZM46.2099 54.5283C46.4326 55.0336 47.0229 55.2628 47.5283 55.0401C48.0336 54.8174 48.2628 54.2271 48.0401 53.7217L46.2099 54.5283ZM35.6474 30.5595L46.2099 54.5283L48.0401 53.7217L37.4776 29.753L35.6474 30.5595Z" fill="white"/>
<path d="M27.7388 30.533C27.9469 30.0215 27.7009 29.4381 27.1893 29.23C26.6777 29.0219 26.0943 29.2679 25.8862 29.7795L27.7388 30.533ZM16.1362 53.7482C15.9281 54.2598 16.1741 54.8432 16.6857 55.0513C17.1973 55.2594 17.7807 55.0134 17.9888 54.5018L16.1362 53.7482ZM25.8862 29.7795L16.1362 53.7482L17.9888 54.5018L27.7388 30.533L25.8862 29.7795Z" fill="white"/>
</svg>
