<svg width="315" height="165" viewBox="0 0 315 165" fill="none" xmlns="http://www.w3.org/2000/svg">
<mask id="mask0_699_1609" style="mask-type:alpha" maskUnits="userSpaceOnUse" x="0" y="0" width="315" height="165">
<path d="M0 0.5H315V155.5C315 160.471 310.971 164.5 306 164.5H9C4.02944 164.5 0 160.471 0 155.5V0.5Z" fill="#C4C4C4"/>
</mask>
<g mask="url(#mask0_699_1609)">
<path d="M-0.1875 59.0685L110.157 236.941" stroke="#EF962D" stroke-width="0.5" stroke-miterlimit="10"/>
<path d="M90.6709 236.941L323.092 76.6294" stroke="#EF962D" stroke-width="0.5" stroke-miterlimit="10"/>
<path d="M13.9053 16.0441V91.4212" stroke="#EF962D" stroke-width="0.5" stroke-miterlimit="10"/>
<path d="M18.5239 18.2054L17.8496 98.0066" stroke="#EF962D" stroke-width="0.5" stroke-miterlimit="10"/>
<path d="M24.3564 18.2054V102.768" stroke="#EF962D" stroke-width="0.5" stroke-miterlimit="10"/>
<path d="M37.5381 12.3969V83.2824" stroke="#EF962D" stroke-width="0.5" stroke-miterlimit="10"/>
<path d="M57.126 29.3162V54.4756" stroke="#EF962D" stroke-width="0.5" stroke-miterlimit="10"/>
<path d="M58.8789 28.8771V53.7326" stroke="#EF962D" stroke-width="0.5" stroke-miterlimit="10"/>
<path d="M138.477 16.5168V41.6763" stroke="#EF962D" stroke-width="0.5" stroke-miterlimit="10"/>
<path d="M140.229 16.0779V40.9334" stroke="#EF962D" stroke-width="0.5" stroke-miterlimit="10"/>
<path d="M150.479 12.8696V38.0291" stroke="#EF962D" stroke-width="0.5" stroke-miterlimit="10"/>
<path d="M152.231 12.4305V37.2861" stroke="#EF962D" stroke-width="0.5" stroke-miterlimit="10"/>
<path d="M81.1973 5.7439V67.8152" stroke="#EF962D" stroke-width="0.5" stroke-miterlimit="10"/>
<path d="M92.2549 6.41931V64.4043" stroke="#EF962D" stroke-width="0.5" stroke-miterlimit="10"/>
<path d="M107.19 8.54688V66.5656" stroke="#EF962D" stroke-width="0.5" stroke-miterlimit="10"/>
<path d="M108.472 8.54688V66.5656" stroke="#EF962D" stroke-width="0.5" stroke-miterlimit="10"/>
<path d="M101.155 88.5507V117.56" stroke="#EF962D" stroke-width="0.5" stroke-miterlimit="10"/>
<path d="M117.642 121.545V150.554" stroke="#EF962D" stroke-width="0.5" stroke-miterlimit="10"/>
<path d="M131.228 108.645V141.943" stroke="#EF962D" stroke-width="0.5" stroke-miterlimit="10"/>
<path d="M133.688 113.98V142.99" stroke="#EF962D" stroke-width="0.5" stroke-miterlimit="10"/>
<path d="M162.446 97.365V126.374" stroke="#EF962D" stroke-width="0.5" stroke-miterlimit="10"/>
<path d="M181.428 90.4419V119.451" stroke="#EF962D" stroke-width="0.5" stroke-miterlimit="10"/>
<path d="M165.413 78.9259V107.935" stroke="#EF962D" stroke-width="0.5" stroke-miterlimit="10"/>
<path d="M160.524 88.9896V117.999" stroke="#EF962D" stroke-width="0.5" stroke-miterlimit="10"/>
<path d="M185.203 84.1604V113.17" stroke="#EF962D" stroke-width="0.5" stroke-miterlimit="10"/>
<path d="M185.878 83.8228V112.832" stroke="#EF962D" stroke-width="0.5" stroke-miterlimit="10"/>
<path d="M166.526 77.2711V106.281" stroke="#EF962D" stroke-width="0.5" stroke-miterlimit="10"/>
<path d="M180.281 88.9896V117.999" stroke="#EF962D" stroke-width="0.5" stroke-miterlimit="10"/>
<path d="M153.445 102.836V131.811" stroke="#EF962D" stroke-width="0.5" stroke-miterlimit="10"/>
<path d="M151.658 101.755V130.765" stroke="#EF962D" stroke-width="0.5" stroke-miterlimit="10"/>
<path d="M129.171 102.363V131.372" stroke="#EF962D" stroke-width="0.5" stroke-miterlimit="10"/>
<path d="M121.384 79.6351V108.644" stroke="#EF962D" stroke-width="0.5" stroke-miterlimit="10"/>
<path d="M119.395 77.8452V106.821" stroke="#EF962D" stroke-width="0.5" stroke-miterlimit="10"/>
<path d="M98.7617 79.1624V108.172" stroke="#EF962D" stroke-width="0.5" stroke-miterlimit="10"/>
<path d="M132.88 75.954V104.93" stroke="#EF962D" stroke-width="0.5" stroke-miterlimit="10"/>
<path d="M134.768 77.8452V106.821" stroke="#EF962D" stroke-width="0.5" stroke-miterlimit="10"/>
<path d="M147.242 86.153V115.129" stroke="#EF962D" stroke-width="0.5" stroke-miterlimit="10"/>
<path d="M148.928 86.9634V115.973" stroke="#EF962D" stroke-width="0.5" stroke-miterlimit="10"/>
<path d="M136.353 76.6294V105.639" stroke="#EF962D" stroke-width="0.5" stroke-miterlimit="10"/>
<path d="M180.888 -13.4718V44.5132" stroke="#EF962D" stroke-width="0.5" stroke-miterlimit="10"/>
<path d="M134.768 5.8114V63.8302" stroke="#EF962D" stroke-width="0.5" stroke-miterlimit="10"/>
<path d="M163.458 -5.16418V52.8546" stroke="#EF962D" stroke-width="0.5" stroke-miterlimit="10"/>
<path d="M225.491 -3.67822V54.3405" stroke="#EF962D" stroke-width="0.5" stroke-miterlimit="10"/>
<path d="M226.771 -2.90149V55.0835" stroke="#EF962D" stroke-width="0.5" stroke-miterlimit="10"/>
<path d="M230.852 11.9916V74.198" stroke="#EF962D" stroke-width="0.5" stroke-miterlimit="10"/>
<path d="M237.459 16.1792V78.2505" stroke="#EF962D" stroke-width="0.5" stroke-miterlimit="10"/>
<path d="M251.989 24.9259V86.9634" stroke="#EF962D" stroke-width="0.5" stroke-miterlimit="10"/>
<path d="M269.386 29.4512V91.4887" stroke="#EF962D" stroke-width="0.5" stroke-miterlimit="10"/>
<path d="M244.067 12.8696V75.0085" stroke="#EF962D" stroke-width="0.5" stroke-miterlimit="10"/>
<path d="M240.189 13.4775V75.5826" stroke="#EF962D" stroke-width="0.5" stroke-miterlimit="10"/>
<path d="M242.111 12.5995V74.7383" stroke="#EF962D" stroke-width="0.5" stroke-miterlimit="10"/>
<path d="M279.129 23.5751V107.868" stroke="#EF962D" stroke-width="0.5" stroke-miterlimit="10"/>
<path d="M284.354 26.1079V109.793" stroke="#EF962D" stroke-width="0.5" stroke-miterlimit="10"/>
<path d="M310.146 27.7964V88.5506" stroke="#EF962D" stroke-width="0.5" stroke-miterlimit="10"/>
<path d="M305.695 25.2635V86.6594" stroke="#EF962D" stroke-width="0.5" stroke-miterlimit="10"/>
<path d="M95.0869 204.149L322.383 59.5413" stroke="#EF962D" stroke-width="0.5" stroke-miterlimit="10"/>
<path d="M113.529 212.085L7.33105 55.2523" stroke="#EF962D" stroke-width="0.5" stroke-miterlimit="10"/>
<path d="M156.749 155.451V202.157" stroke="#EF962D" stroke-width="0.5" stroke-miterlimit="10"/>
<path d="M15.2871 56.9747L119.091 199.59" stroke="#EF962D" stroke-width="0.5" stroke-miterlimit="10"/>
<path d="M316.349 58.1904L95.7275 192.059" stroke="#EF962D" stroke-width="0.5" stroke-miterlimit="10"/>
<path d="M4.36426 29.7889L98.9643 7.19604" stroke="#EF962D" stroke-width="0.5" stroke-miterlimit="10"/>
<path d="M7.9375 34.1116L104.729 9.72888" stroke="#EF962D" stroke-width="0.5" stroke-miterlimit="10"/>
<path d="M10.8037 24.5883L20.0749 35.4288" stroke="#EF962D" stroke-width="0.5" stroke-miterlimit="10"/>
<path d="M16.6016 23.1023L25.7716 34.1117" stroke="#EF962D" stroke-width="0.5" stroke-miterlimit="10"/>
<path d="M16.9395 34.1116L25.7724 32.0178" stroke="#EF962D" stroke-width="0.5" stroke-miterlimit="10"/>
<path d="M85.9512 8.54688L110.225 24.8921" stroke="#EF962D" stroke-width="0.5" stroke-miterlimit="10"/>
<path d="M111.472 23.8452L87.8389 8.54688" stroke="#EF962D" stroke-width="0.5" stroke-miterlimit="10"/>
<path d="M94.2783 6.65576L117.743 20.8396" stroke="#EF962D" stroke-width="0.5" stroke-miterlimit="10"/>
<path d="M95.3564 18.0366L183.349 -4.86023" stroke="#EF962D" stroke-width="0.5" stroke-miterlimit="10"/>
<path d="M98.5928 21.9202L188.642 -2.15857" stroke="#EF962D" stroke-width="0.5" stroke-miterlimit="10"/>
<path d="M168.751 -4.86023L295.008 44.1754" stroke="#EF962D" stroke-width="0.5" stroke-miterlimit="10"/>
<path d="M175.427 -6.24487L300.066 41.0009" stroke="#EF962D" stroke-width="0.5" stroke-miterlimit="10"/>
<path d="M276.668 43.5338L310.145 26.1079" stroke="#EF962D" stroke-width="0.5" stroke-miterlimit="10"/>
<path d="M315.911 27.2899L281.051 45.3912" stroke="#EF962D" stroke-width="0.5" stroke-miterlimit="10"/>
<path d="M275.791 41.001L287.726 44.9522" stroke="#EF962D" stroke-width="0.5" stroke-miterlimit="10"/>
<path d="M303.47 27.2899L312.134 31.2074" stroke="#EF962D" stroke-width="0.5" stroke-miterlimit="10"/>
<path d="M276.634 79.5L285.736 84.4306" stroke="#EF962D" stroke-width="0.5" stroke-miterlimit="10"/>
<path d="M16.6016 86.9634L122.765 52.1454" stroke="#EF962D" stroke-width="0.5" stroke-miterlimit="10"/>
<path d="M86.3555 56.9747L216.355 170.952" stroke="#EF962D" stroke-width="0.5" stroke-miterlimit="10"/>
<path d="M40.8086 139.579L235.302 50.4906" stroke="#EF962D" stroke-width="0.5" stroke-miterlimit="10"/>
<path d="M247.304 62.1416L43.1348 163.117" stroke="#EF962D" stroke-width="0.5" stroke-miterlimit="10"/>
<path d="M13.9053 107.868L194.913 37.5563" stroke="#EF962D" stroke-width="0.5" stroke-miterlimit="10"/>
<path d="M296.559 106.483L170.571 37.5563" stroke="#EF962D" stroke-width="0.5" stroke-miterlimit="10"/>
<path d="M248.484 67.9503L231.896 76.6295" stroke="#EF962D" stroke-width="0.5" stroke-miterlimit="10"/>
<path d="M15.6914 72.712L29.4802 67.8152" stroke="#EF962D" stroke-width="0.5" stroke-miterlimit="10"/>
<path d="M218.276 41.001L41.8535 112.629" stroke="#EF962D" stroke-width="0.5" stroke-miterlimit="10"/>
<path d="M43.9775 113.98L219.962 41.6764" stroke="#EF962D" stroke-width="0.5" stroke-miterlimit="10"/>
<path d="M97.2783 49.5112L225.491 149.913" stroke="#EF962D" stroke-width="0.5" stroke-miterlimit="10"/>
<path d="M98.7617 49.106L228.188 149.913" stroke="#EF962D" stroke-width="0.5" stroke-miterlimit="10"/>
<path d="M111.944 125.361L183.518 90.4419" stroke="#EF962D" stroke-width="0.5" stroke-miterlimit="10"/>
<path d="M112.517 127.151L184.09 92.333" stroke="#EF962D" stroke-width="0.5" stroke-miterlimit="10"/>
<path d="M115.889 121.545L159.278 166.663" stroke="#EF962D" stroke-width="0.5" stroke-miterlimit="10"/>
<path d="M119.935 120.059L162.447 164.873" stroke="#EF962D" stroke-width="0.5" stroke-miterlimit="10"/>
<path d="M114 147.954L189.35 107.868" stroke="#EF962D" stroke-width="0.5" stroke-miterlimit="10"/>
<path d="M115.551 149.339L190.867 109.252" stroke="#EF962D" stroke-width="0.5" stroke-miterlimit="10"/>
<path d="M179.438 90.4419L227.008 125.361" stroke="#EF962D" stroke-width="0.5" stroke-miterlimit="10"/>
<path d="M177.382 91.7927L225.491 127.151" stroke="#EF962D" stroke-width="0.5" stroke-miterlimit="10"/>
<path d="M175.427 5.00098L298.481 55.9616" stroke="#EF962D" stroke-width="0.5" stroke-miterlimit="10"/>
<path d="M232.335 64.3706L302.526 101.384" stroke="#EF962D" stroke-width="0.5" stroke-miterlimit="10"/>
<path d="M231.896 66.0254L302.054 103.039" stroke="#EF962D" stroke-width="0.5" stroke-miterlimit="10"/>
<path d="M231.391 67.9503L301.582 104.93" stroke="#EF962D" stroke-width="0.5" stroke-miterlimit="10"/>
<path d="M234.088 54.2054L304.246 91.1848" stroke="#EF962D" stroke-width="0.5" stroke-miterlimit="10"/>
<path d="M111.944 139.579L163.459 198.678" stroke="#EF962D" stroke-width="0.5" stroke-miterlimit="10"/>
<path d="M184.091 125.125L212.579 108.645" stroke="#EF962D" stroke-width="0.5" stroke-miterlimit="10"/>
<path d="M194.913 115.973L273.162 70.8883" stroke="#EF962D" stroke-width="0.5" stroke-miterlimit="10"/>
<path d="M119.935 24.9259L175.427 9.72888" stroke="#EF962D" stroke-width="0.5" stroke-miterlimit="10"/>
<path d="M120.709 45.3574L175.426 27.6951" stroke="#EF962D" stroke-width="0.5" stroke-miterlimit="10"/>
<path d="M120.709 43.061L175.426 25.9728" stroke="#EF962D" stroke-width="0.5" stroke-miterlimit="10"/>
<path d="M234.02 49.849L128.632 97.365" stroke="#EF962D" stroke-width="0.5" stroke-miterlimit="10"/>
<path d="M223.974 52.9221L228.188 55.0835" stroke="#EF962D" stroke-width="0.5" stroke-miterlimit="10"/>
<path d="M224.243 20.8734L235.031 15.7739" stroke="#EF962D" stroke-width="0.5" stroke-miterlimit="10"/>
<path d="M225.659 21.515L236.515 16.1792" stroke="#EF962D" stroke-width="0.5" stroke-miterlimit="10"/>
<path d="M224.075 19.9615L227.919 21.3462" stroke="#EF962D" stroke-width="0.5" stroke-miterlimit="10"/>
<path d="M29.4805 38.3668L86.3551 23.1023" stroke="#EF962D" stroke-width="0.5" stroke-miterlimit="10"/>
<path d="M28.874 64.4043L86.3555 47.8564" stroke="#EF962D" stroke-width="0.5" stroke-miterlimit="10"/>
<path d="M34.9756 59.5412L83.759 45.5938" stroke="#EF962D" stroke-width="0.5" stroke-miterlimit="10"/>
<path d="M34.9756 57.5825L84.3658 43.7701" stroke="#EF962D" stroke-width="0.5" stroke-miterlimit="10"/>
<path d="M183.248 93.0759L159.277 93.7514" stroke="#EF962D" stroke-width="0.5" stroke-miterlimit="10"/>
<path d="M183.248 93.8865L159.277 94.5957" stroke="#EF962D" stroke-width="0.5" stroke-miterlimit="10"/>
<path d="M128.295 107.699L152.265 106.99" stroke="#EF962D" stroke-width="0.5" stroke-miterlimit="10"/>
<path d="M128.295 106.821L152.265 106.145" stroke="#EF962D" stroke-width="0.5" stroke-miterlimit="10"/>
<path d="M128.531 129.954L152.468 129.245" stroke="#EF962D" stroke-width="0.5" stroke-miterlimit="10"/>
<path d="M165.852 81.0873L186.585 85.9165" stroke="#EF962D" stroke-width="0.5" stroke-miterlimit="10"/>
<path d="M165.413 81.7627L186.181 86.5582" stroke="#EF962D" stroke-width="0.5" stroke-miterlimit="10"/>
<path d="M23.0752 35.1248L89.6593 18.0366" stroke="#EF962D" stroke-width="0.5" stroke-miterlimit="10"/>
<path d="M23.0752 36.0028L89.6593 18.7795" stroke="#EF962D" stroke-width="0.5" stroke-miterlimit="10"/>
<path d="M34.4697 33.0647V81.6613" stroke="#EF962D" stroke-width="0.5" stroke-miterlimit="10"/>
<path d="M35.3464 32.8284V81.425" stroke="#EF962D" stroke-width="0.5" stroke-miterlimit="10"/>
<path d="M36.2227 32.592V81.1886" stroke="#EF962D" stroke-width="0.5" stroke-miterlimit="10"/>
<path d="M37.0993 32.3893V80.9859" stroke="#EF962D" stroke-width="0.5" stroke-miterlimit="10"/>
<path d="M37.976 32.1529V80.7496" stroke="#EF962D" stroke-width="0.5" stroke-miterlimit="10"/>
<path d="M38.8527 31.9165V80.5132" stroke="#EF962D" stroke-width="0.5" stroke-miterlimit="10"/>
<path d="M39.7289 31.6801V80.3105" stroke="#EF962D" stroke-width="0.5" stroke-miterlimit="10"/>
<path d="M40.6057 31.4775V80.0741" stroke="#EF962D" stroke-width="0.5" stroke-miterlimit="10"/>
<path d="M41.4823 31.2411V79.8377" stroke="#EF962D" stroke-width="0.5" stroke-miterlimit="10"/>
<path d="M42.3586 31.0047V79.6013" stroke="#EF962D" stroke-width="0.5" stroke-miterlimit="10"/>
<path d="M43.2352 30.8021V79.3987" stroke="#EF962D" stroke-width="0.5" stroke-miterlimit="10"/>
<path d="M44.1118 30.5657V79.1623" stroke="#EF962D" stroke-width="0.5" stroke-miterlimit="10"/>
<path d="M45.0221 30.3293V78.9259" stroke="#EF962D" stroke-width="0.5" stroke-miterlimit="10"/>
<path d="M45.8984 30.0929V78.7233" stroke="#EF962D" stroke-width="0.5" stroke-miterlimit="10"/>
<path d="M46.7751 29.8902V78.4869" stroke="#EF962D" stroke-width="0.5" stroke-miterlimit="10"/>
<path d="M47.6517 29.6539V78.2505" stroke="#EF962D" stroke-width="0.5" stroke-miterlimit="10"/>
<path d="M48.5281 29.4174V78.0141" stroke="#EF962D" stroke-width="0.5" stroke-miterlimit="10"/>
<path d="M49.4047 29.2149V77.8115" stroke="#EF962D" stroke-width="0.5" stroke-miterlimit="10"/>
<path d="M50.2814 28.9785V77.5751" stroke="#EF962D" stroke-width="0.5" stroke-miterlimit="10"/>
<path d="M51.158 28.742V77.3387" stroke="#EF962D" stroke-width="0.5" stroke-miterlimit="10"/>
<path d="M52.0347 28.5057V77.1361" stroke="#EF962D" stroke-width="0.5" stroke-miterlimit="10"/>
<path d="M52.911 28.303V76.8997" stroke="#EF962D" stroke-width="0.5" stroke-miterlimit="10"/>
<path d="M53.7877 28.0666V76.6632" stroke="#EF962D" stroke-width="0.5" stroke-miterlimit="10"/>
<path d="M54.6639 27.8302V76.4268" stroke="#EF962D" stroke-width="0.5" stroke-miterlimit="10"/>
<path d="M63.1599 25.5V72.7796" stroke="#EF962D" stroke-width="0.5" stroke-miterlimit="10"/>
<path d="M64.0365 25.2974V72.5769" stroke="#EF962D" stroke-width="0.5" stroke-miterlimit="10"/>
<path d="M64.9128 25.061V72.3405" stroke="#EF962D" stroke-width="0.5" stroke-miterlimit="10"/>
<path d="M65.8231 24.8584V72.1379" stroke="#EF962D" stroke-width="0.5" stroke-miterlimit="10"/>
<path d="M66.6997 24.6219V71.9015" stroke="#EF962D" stroke-width="0.5" stroke-miterlimit="10"/>
<path d="M67.5763 24.4193V71.6989" stroke="#EF962D" stroke-width="0.5" stroke-miterlimit="10"/>
<path d="M68.4527 24.1829V71.4625" stroke="#EF962D" stroke-width="0.5" stroke-miterlimit="10"/>
<path d="M69.3293 23.9803V71.2598" stroke="#EF962D" stroke-width="0.5" stroke-miterlimit="10"/>
<path d="M70.2061 23.7439V71.0235" stroke="#EF962D" stroke-width="0.5" stroke-miterlimit="10"/>
<path d="M71.0826 23.5413V70.8208" stroke="#EF962D" stroke-width="0.5" stroke-miterlimit="10"/>
<path d="M71.9592 23.3048V70.5844" stroke="#EF962D" stroke-width="0.5" stroke-miterlimit="10"/>
<path d="M72.8356 23.1022V70.348" stroke="#EF962D" stroke-width="0.5" stroke-miterlimit="10"/>
<path d="M73.7122 22.8659V70.1454" stroke="#EF962D" stroke-width="0.5" stroke-miterlimit="10"/>
<path d="M74.5886 22.6632V69.909" stroke="#EF962D" stroke-width="0.5" stroke-miterlimit="10"/>
<path d="M75.4652 22.4268V69.7063" stroke="#EF962D" stroke-width="0.5" stroke-miterlimit="10"/>
<path d="M76.3418 22.2242V69.47" stroke="#EF962D" stroke-width="0.5" stroke-miterlimit="10"/>
<path d="M77.2182 21.9878V69.2674" stroke="#EF962D" stroke-width="0.5" stroke-miterlimit="10"/>
<path d="M78.1284 21.7514V69.031" stroke="#EF962D" stroke-width="0.5" stroke-miterlimit="10"/>
<path d="M79.0051 21.5488V68.8283" stroke="#EF962D" stroke-width="0.5" stroke-miterlimit="10"/>
<path d="M79.8817 21.3124V68.5919" stroke="#EF962D" stroke-width="0.5" stroke-miterlimit="10"/>
<path d="M80.7584 21.1098V68.3893" stroke="#EF962D" stroke-width="0.5" stroke-miterlimit="10"/>
<path d="M81.6351 20.8734V68.1529" stroke="#EF962D" stroke-width="0.5" stroke-miterlimit="10"/>
<path d="M82.5114 20.6707V67.9503" stroke="#EF962D" stroke-width="0.5" stroke-miterlimit="10"/>
<path d="M83.3881 20.4343V67.7139" stroke="#EF962D" stroke-width="0.5" stroke-miterlimit="10"/>
<path d="M112.888 21.38L179.506 4.32556" stroke="#EF962D" stroke-width="0.5" stroke-miterlimit="10"/>
<path d="M112.888 22.258L179.506 5.06848" stroke="#EF962D" stroke-width="0.5" stroke-miterlimit="10"/>
<path d="M130.452 17.7327V66.3293" stroke="#EF962D" stroke-width="0.5" stroke-miterlimit="10"/>
<path d="M131.329 17.4963V66.1267" stroke="#EF962D" stroke-width="0.5" stroke-miterlimit="10"/>
<path d="M132.205 17.2937V65.8903" stroke="#EF962D" stroke-width="0.5" stroke-miterlimit="10"/>
<path d="M133.082 17.0572V65.6538" stroke="#EF962D" stroke-width="0.5" stroke-miterlimit="10"/>
<path d="M133.958 16.8208V65.4175" stroke="#EF962D" stroke-width="0.5" stroke-miterlimit="10"/>
<path d="M135.711 16.3818V64.9785" stroke="#EF962D" stroke-width="0.5" stroke-miterlimit="10"/>
<path d="M136.588 16.1454V64.742" stroke="#EF962D" stroke-width="0.5" stroke-miterlimit="10"/>
<path d="M137.465 15.909V64.5394" stroke="#EF962D" stroke-width="0.5" stroke-miterlimit="10"/>
<path d="M138.341 15.7064V64.303" stroke="#EF962D" stroke-width="0.5" stroke-miterlimit="10"/>
<path d="M139.218 15.47V64.0667" stroke="#EF962D" stroke-width="0.5" stroke-miterlimit="10"/>
<path d="M140.094 15.2336V63.8302" stroke="#EF962D" stroke-width="0.5" stroke-miterlimit="10"/>
<path d="M141.005 15.031V63.6276" stroke="#EF962D" stroke-width="0.5" stroke-miterlimit="10"/>
<path d="M141.881 14.7946V63.3912" stroke="#EF962D" stroke-width="0.5" stroke-miterlimit="10"/>
<path d="M142.758 14.5582V63.1548" stroke="#EF962D" stroke-width="0.5" stroke-miterlimit="10"/>
<path d="M143.634 14.3218V62.9522" stroke="#EF962D" stroke-width="0.5" stroke-miterlimit="10"/>
<path d="M144.51 14.1192V62.7158" stroke="#EF962D" stroke-width="0.5" stroke-miterlimit="10"/>
<path d="M154.76 11.3499V58.6295" stroke="#EF962D" stroke-width="0.5" stroke-miterlimit="10"/>
<path d="M155.636 11.1135V58.393" stroke="#EF962D" stroke-width="0.5" stroke-miterlimit="10"/>
<path d="M156.513 10.9109V58.1905" stroke="#EF962D" stroke-width="0.5" stroke-miterlimit="10"/>
<path d="M157.389 10.6745V57.954" stroke="#EF962D" stroke-width="0.5" stroke-miterlimit="10"/>
<path d="M158.266 10.4718V57.7514" stroke="#EF962D" stroke-width="0.5" stroke-miterlimit="10"/>
<path d="M159.143 10.2355V57.515" stroke="#EF962D" stroke-width="0.5" stroke-miterlimit="10"/>
<path d="M160.019 10.0328V57.2786" stroke="#EF962D" stroke-width="0.5" stroke-miterlimit="10"/>
<path d="M160.929 9.79645V57.076" stroke="#EF962D" stroke-width="0.5" stroke-miterlimit="10"/>
<path d="M161.806 9.59381V56.8396" stroke="#EF962D" stroke-width="0.5" stroke-miterlimit="10"/>
<path d="M162.683 9.35741V56.637" stroke="#EF962D" stroke-width="0.5" stroke-miterlimit="10"/>
<path d="M164.435 8.91838V56.1979" stroke="#EF962D" stroke-width="0.5" stroke-miterlimit="10"/>
<path d="M165.312 8.68199V55.9615" stroke="#EF962D" stroke-width="0.5" stroke-miterlimit="10"/>
<path d="M166.188 8.47937V55.7589" stroke="#EF962D" stroke-width="0.5" stroke-miterlimit="10"/>
<path d="M167.065 8.24298V55.5225" stroke="#EF962D" stroke-width="0.5" stroke-miterlimit="10"/>
<path d="M167.942 8.04034V55.3199" stroke="#EF962D" stroke-width="0.5" stroke-miterlimit="10"/>
<path d="M168.818 7.80394V55.0835" stroke="#EF962D" stroke-width="0.5" stroke-miterlimit="10"/>
<path d="M169.695 7.60132V54.8809" stroke="#EF962D" stroke-width="0.5" stroke-miterlimit="10"/>
<path d="M124.957 182.806L160.558 160.517" stroke="#EF962D" stroke-width="0.5" stroke-miterlimit="10"/>
<path d="M144.443 154.168L184.731 130.292" stroke="#EF962D" stroke-width="0.5" stroke-miterlimit="10"/>
<path d="M178.898 131.372L189.687 140.423" stroke="#EF962D" stroke-width="0.5" stroke-miterlimit="10"/>
<path d="M97.2109 82.1341L120.271 81.2223" stroke="#EF962D" stroke-width="0.5" stroke-miterlimit="10"/>
<path d="M97.3457 82.9108L120.406 81.999" stroke="#EF962D" stroke-width="0.5" stroke-miterlimit="10"/>
<path d="M97.3457 102.87L120.406 101.958" stroke="#EF962D" stroke-width="0.5" stroke-miterlimit="10"/>
<path d="M53.7207 79.4662L104.392 62.1416" stroke="#EF962D" stroke-width="0.5" stroke-miterlimit="10"/>
<path d="M71.791 99.4925L122.766 77.2373" stroke="#EF962D" stroke-width="0.5" stroke-miterlimit="10"/>
<path d="M55.373 76.3931L76.6462 100.573" stroke="#EF962D" stroke-width="0.5" stroke-miterlimit="10"/>
<path d="M55.373 82.4381L75.6348 106.483" stroke="#EF962D" stroke-width="0.5" stroke-miterlimit="10"/>
<path d="M58.1035 78.4193V87.166" stroke="#EF962D" stroke-width="0.5" stroke-miterlimit="10"/>
<path d="M100.11 57.7513V75.8189" stroke="#EF962D" stroke-width="0.5" stroke-miterlimit="10"/>
<path d="M101.459 56.8734V75.6502" stroke="#EF962D" stroke-width="0.5" stroke-miterlimit="10"/>
<path d="M102.269 57.515V75.5826" stroke="#EF962D" stroke-width="0.5" stroke-miterlimit="10"/>
<path d="M119.395 72.5431V87.166" stroke="#EF962D" stroke-width="0.5" stroke-miterlimit="10"/>
<path d="M118.586 71.7664V86.3893" stroke="#EF962D" stroke-width="0.5" stroke-miterlimit="10"/>
<path d="M121.08 71.2937V86.8622" stroke="#EF962D" stroke-width="0.5" stroke-miterlimit="10"/>
<path d="M58.9121 79.4662V88.1791" stroke="#EF962D" stroke-width="0.5" stroke-miterlimit="10"/>
<path d="M100.886 57.4137L122.058 74.3668" stroke="#EF962D" stroke-width="0.5" stroke-miterlimit="10"/>
<path d="M99.4365 57.7513L120.271 75.0084" stroke="#EF962D" stroke-width="0.5" stroke-miterlimit="10"/>
<path d="M122.227 72.9822L118.147 75.0085" stroke="#EF962D" stroke-width="0.5" stroke-miterlimit="10"/>
<path d="M99.5371 58.4605L101.998 57.7513" stroke="#EF962D" stroke-width="0.5" stroke-miterlimit="10"/>
<path d="M168.751 40.3931L181.764 35.1586" stroke="#EF962D" stroke-width="0.5" stroke-miterlimit="10"/>
<path d="M179.978 34.8208L211.567 51.0647" stroke="#EF962D" stroke-width="0.5" stroke-miterlimit="10"/>
<path d="M196.194 55.9615L212.107 49.106" stroke="#EF962D" stroke-width="0.5" stroke-miterlimit="10"/>
<path d="M168.751 45.6951L198.79 62.8508" stroke="#EF962D" stroke-width="0.5" stroke-miterlimit="10"/>
<path d="M198.251 59.5412L167.504 42.3855" stroke="#EF962D" stroke-width="0.5" stroke-miterlimit="10"/>
<path d="M197.576 54.0028V64.5394" stroke="#EF962D" stroke-width="0.5" stroke-miterlimit="10"/>
<path d="M169.694 38.6031V49.106" stroke="#EF962D" stroke-width="0.5" stroke-miterlimit="10"/>
<path d="M168.38 44.9859L179.505 40.3931" stroke="#EF962D" stroke-width="0.5" stroke-miterlimit="10"/>
<path d="M181.124 35.3949L178.798 37.0835L177.349 41.2711" stroke="#EF962D" stroke-width="0.5" stroke-miterlimit="10"/>
<path d="M178.798 37.0835L207.724 52.5169" stroke="#EF962D" stroke-width="0.5" stroke-miterlimit="10"/>
<path d="M209.679 49.106V60.2504" stroke="#EF962D" stroke-width="0.5" stroke-miterlimit="10"/>
<path d="M210.455 56.4343L196.025 62.8508" stroke="#EF962D" stroke-width="0.5" stroke-miterlimit="10"/>
<path d="M166.897 105.605L151.658 113.845" stroke="#EF962D" stroke-width="0.5" stroke-miterlimit="10"/>
<path d="M154.49 110.941L168.313 122.828" stroke="#EF962D" stroke-width="0.5" stroke-miterlimit="10"/>
<path d="M154.49 113.17L168.313 125.057" stroke="#EF962D" stroke-width="0.5" stroke-miterlimit="10"/>
<path d="M161.907 117.324C163.964 119.114 167.875 119.282 169.762 118.269" stroke="#EF962D" stroke-width="0.5" stroke-miterlimit="10"/>
<path d="M161.907 119.519C163.964 121.309 167.875 121.478 169.762 120.464" stroke="#EF962D" stroke-width="0.5" stroke-miterlimit="10"/>
<path d="M164.807 105.808L177.045 115.804" stroke="#EF962D" stroke-width="0.5" stroke-miterlimit="10"/>
<path d="M175.999 113.845V118.708" stroke="#EF962D" stroke-width="0.5" stroke-miterlimit="10"/>
<path d="M160.188 109.252C158.097 110.637 157.929 113.643 159.547 115.331" stroke="#EF962D" stroke-width="0.5" stroke-miterlimit="10"/>
<path d="M158.469 116.581V112.292" stroke="#EF962D" stroke-width="0.5" stroke-miterlimit="10"/>
<path d="M150.646 152.412C150.646 152.412 175.561 137.789 177.381 136.776C179.202 135.763 180.011 136.067 180.82 136.742C181.697 137.485 183.315 138.87 183.315 138.87" stroke="#EF962D" stroke-width="0.5" stroke-miterlimit="10"/>
<path d="M189.687 114.825L194.912 118.539" stroke="#EF962D" stroke-width="0.5" stroke-miterlimit="10"/>
<path d="M196.328 110.941L201.217 114.419" stroke="#EF962D" stroke-width="0.5" stroke-miterlimit="10"/>
<path d="M189.35 115.973L198.317 110.941" stroke="#EF962D" stroke-width="0.5" stroke-miterlimit="10"/>
<path d="M192.519 118.539L201.453 113.17" stroke="#EF962D" stroke-width="0.5" stroke-miterlimit="10"/>
<path d="M190.159 121.613L190.564 114.419" stroke="#EF962D" stroke-width="0.5" stroke-miterlimit="10"/>
<path d="M190.361 118.033C190.361 118.033 189.013 117.29 187.765 116.513C186.686 115.838 183.686 115.264 182.371 116.142" stroke="#EF962D" stroke-width="0.5" stroke-miterlimit="10"/>
<path d="M193.834 117.053L193.665 119.586" stroke="#EF962D" stroke-width="0.5" stroke-miterlimit="10"/>
<path d="M200.273 113.17L200.341 115.703" stroke="#EF962D" stroke-width="0.5" stroke-miterlimit="10"/>
<path d="M217.636 104.018L228.727 97.7026L239.111 104.322L228.188 110.941L217.636 104.018Z" stroke="#EF962D" stroke-width="0.5" stroke-miterlimit="10"/>
<path d="M226.267 94.8322L241.64 104.322" stroke="#EF962D" stroke-width="0.5" stroke-miterlimit="10"/>
<path d="M241.033 86.6257L256.575 95.5413" stroke="#EF962D" stroke-width="0.5" stroke-miterlimit="10"/>
<path d="M226.267 96.453L242.955 86.9634" stroke="#EF962D" stroke-width="0.5" stroke-miterlimit="10"/>
<path d="M227.648 94.4268V97.2297" stroke="#EF962D" stroke-width="0.5" stroke-miterlimit="10"/>
<path d="M228.795 105.065V97.0609" stroke="#EF962D" stroke-width="0.5" stroke-miterlimit="10"/>
<path d="M222.592 107.26L229.739 103.477" stroke="#EF962D" stroke-width="0.5" stroke-miterlimit="10"/>
<path d="M233.953 107.429L227.615 103.275" stroke="#EF962D" stroke-width="0.5" stroke-miterlimit="10"/>
<path d="M254.046 78.2505L265.441 84.0929" stroke="#EF962D" stroke-width="0.5" stroke-miterlimit="10"/>
<path d="M262.238 74.198L272.521 79.5001" stroke="#EF962D" stroke-width="0.5" stroke-miterlimit="10"/>
<path d="M254.519 79.5L263.722 73.8264" stroke="#EF962D" stroke-width="0.5" stroke-miterlimit="10"/>
<path d="M262.238 83.7213L271.745 77.9802" stroke="#EF962D" stroke-width="0.5" stroke-miterlimit="10"/>
<path d="M254.788 84.5319L264.767 89.8339" stroke="#EF962D" stroke-width="0.5" stroke-miterlimit="10"/>
<path d="M255.495 77.7777V86.9634" stroke="#EF962D" stroke-width="0.5" stroke-miterlimit="10"/>
<path d="M263.385 81.9653V90.7458" stroke="#EF962D" stroke-width="0.5" stroke-miterlimit="10"/>
<path d="M270.634 77.7777V85.5113" stroke="#EF962D" stroke-width="0.5" stroke-miterlimit="10"/>
<path d="M271.51 84.0929L262.036 90.1042" stroke="#EF962D" stroke-width="0.5" stroke-miterlimit="10"/>
<path d="M266.419 56.7045L281.759 63.7626" stroke="#EF962D" stroke-width="0.5" stroke-miterlimit="10"/>
<path d="M256.474 60.8246L275.05 69.9428" stroke="#EF962D" stroke-width="0.5" stroke-miterlimit="10"/>
<path d="M256.474 63.8639L269.588 56.7045" stroke="#EF962D" stroke-width="0.5" stroke-miterlimit="10"/>
<path d="M270.263 69.4362L281.759 62.8508" stroke="#EF962D" stroke-width="0.5" stroke-miterlimit="10"/>
<path d="M259.339 61.0947V77.136" stroke="#EF962D" stroke-width="0.5" stroke-miterlimit="10"/>
<path d="M271.981 67.545V86.3556" stroke="#EF962D" stroke-width="0.5" stroke-miterlimit="10"/>
<path d="M270.869 85.0047L283.478 77.3724" stroke="#EF962D" stroke-width="0.5" stroke-miterlimit="10"/>
<path d="M280.849 62.1416V80.3442" stroke="#EF962D" stroke-width="0.5" stroke-miterlimit="10"/>
<path d="M310.146 30.2954V85.0046L104.392 227.654L13.9053 82.1341V27.7964L96.2336 7.83765L107.797 14.8283L180.854 -4.31995L289.344 36.9484L305.696 28.3029L310.146 30.2954Z" stroke="#EF962D" stroke-width="0.5" stroke-miterlimit="10"/>
<path d="M13.9053 27.7965L18.524 33.7402L18.4566 71.7327L104.325 198.509L127.857 183.346L122.159 176.018L108.134 184.528L24.5587 69.5713L24.3227 32.3556L22.6034 30.4306L92.2554 13.0047L107.19 22.7983L108.708 22.258L105.606 20.0629L180.72 0.0366211L229.098 18.577L225.424 20.3331L226.975 20.8734L230.784 19.1173L283.815 39.819L279.129 42.0816L284.321 43.6689L310.146 30.2955" stroke="#EF962D" stroke-width="2" stroke-miterlimit="10"/>
<path d="M279.129 42.0817V81.0873L217.734 117.411L183.456 92.1752L180.585 93.9879L205.668 112.629L189.35 122.085L162.447 100.641L150.986 105.656L153.534 108.205L161.59 104.341L195.704 131.303L154.49 156.397L122.159 122.423L132.88 117.121L131.228 115.973L117.642 122.828L156.884 164.84L284.355 83.6539L284.321 43.6689" stroke="#EF962D" stroke-width="2" stroke-miterlimit="10"/>
<path d="M226.975 20.8733L226.806 54.3742L148.928 89.9352L145.181 87.7451L223.43 52.4543V20.3417" stroke="#EF962D" stroke-width="2" stroke-miterlimit="10"/>
<path d="M148.928 89.9353V106.145" stroke="#EF962D" stroke-width="2" stroke-miterlimit="10"/>
<path d="M145.181 87.7744V106.145" stroke="#EF962D" stroke-width="2" stroke-miterlimit="10"/>
<path d="M185.878 92.5357L230.616 70.4156L237.46 74.1642L240.19 72.577L251.99 78.9259V63.864L259.137 67.41" stroke="#EF962D" stroke-width="0.5" stroke-miterlimit="10"/>
<path d="M237.459 73.759L237.729 30.8021L269.386 43.9053V58.0892" stroke="#EF962D" stroke-width="0.5" stroke-miterlimit="10"/>
<path d="M244.067 33.4025L244 70.3143L251.99 74.7383" stroke="#EF962D" stroke-width="0.5" stroke-miterlimit="10"/>
<path d="M51.6973 107.65L97.6487 89.0087L100.886 90.6107L53.8894 109.894" stroke="#EF962D" stroke-width="2" stroke-miterlimit="10"/>
<path d="M66.8018 127.658L101.156 111.92V90.4756" stroke="#EF962D" stroke-width="2" stroke-miterlimit="10"/>
<path d="M121.08 82.3031L121.35 102.566L132.88 97.7365L134.768 99.2562L136.353 98.243V78.3856L108.472 56.7383L108.708 22.2581L107.19 22.7984V57.2449L131.43 76.258L119.395 81.1549L121.08 82.3031ZM121.08 82.3031L132.88 77.44L134.768 78.8584V99.2562" stroke="#EF962D" stroke-width="2" stroke-miterlimit="10"/>
<path d="M132.88 77.4399V97.7364" stroke="#EF962D" stroke-width="0.5" stroke-miterlimit="10"/>
<path d="M54.665 31.6126L63.1608 29.3162" stroke="#EF962D" stroke-width="0.5" stroke-miterlimit="10"/>
<path d="M54.665 52.0779L57.1261 51.3687V30.9709" stroke="#EF962D" stroke-width="0.5" stroke-miterlimit="10"/>
<path d="M58.8789 30.4982L58.9126 50.8959L63.1605 49.6802" stroke="#EF962D" stroke-width="0.5" stroke-miterlimit="10"/>
<path d="M54.665 53.9353L63.1608 51.5038" stroke="#EF962D" stroke-width="0.5" stroke-miterlimit="10"/>
<path d="M54.665 56.9746L63.1608 54.5431" stroke="#EF962D" stroke-width="0.5" stroke-miterlimit="10"/>
<path d="M33.29 81.4925L92.2549 62.1416L95.7274 65.1135" stroke="#EF962D" stroke-width="0.5" stroke-miterlimit="10"/>
<path d="M92.2549 13.0046V62.1416" stroke="#EF962D" stroke-width="0.5" stroke-miterlimit="10"/>
<path d="M117.642 122.828L117.574 146.029L140.938 172.81" stroke="#EF962D" stroke-width="2" stroke-miterlimit="10"/>
<path d="M132.88 117.121V133.669" stroke="#EF962D" stroke-width="0.5" stroke-miterlimit="10"/>
<path d="M153.209 107.53L153.344 129.211L151.658 127.894L135.543 136.472" stroke="#EF962D" stroke-width="0.5" stroke-miterlimit="10"/>
<path d="M153.344 129.211L162.514 124.078L175.73 135.628" stroke="#EF962D" stroke-width="0.5" stroke-miterlimit="10"/>
<path d="M180.281 93.9878L180.315 112.528L178.528 113.44" stroke="#EF962D" stroke-width="0.5" stroke-miterlimit="10"/>
<path d="M120.811 66.3293L169.695 47.35" stroke="#EF962D" stroke-width="0.5" stroke-miterlimit="10"/>
<path d="M180.72 0.0366211L180.888 35.395" stroke="#EF962D" stroke-width="0.5" stroke-miterlimit="10"/>
<path d="M144.511 18.1717L154.76 15.3687" stroke="#EF962D" stroke-width="0.5" stroke-miterlimit="10"/>
<path d="M144.511 35.6313L150.478 33.7739V16.5507" stroke="#EF962D" stroke-width="0.5" stroke-miterlimit="10"/>
<path d="M152.198 16.0779V33.2336L154.76 32.4231" stroke="#EF962D" stroke-width="0.5" stroke-miterlimit="10"/>
<path d="M144.511 37.6576L154.76 34.348" stroke="#EF962D" stroke-width="0.5" stroke-miterlimit="10"/>
<path d="M251.989 63.864V82.1004L252.866 82.5732" stroke="#EF962D" stroke-width="0.5" stroke-miterlimit="10"/>
<path d="M255.429 81.0873L243.427 88.0104L242.28 87.3687L227.649 95.5413L228.795 96.3856L205.634 109.793" stroke="#EF962D" stroke-width="0.5" stroke-miterlimit="10"/>
<path d="M230.784 19.1173L230.615 70.4156" stroke="#EF962D" stroke-width="0.5" stroke-miterlimit="10"/>
<path d="M162.446 102.836V108.037" stroke="#EF962D" stroke-width="0.5" stroke-miterlimit="10"/>
<path d="M162.514 120.059V124.078" stroke="#EF962D" stroke-width="0.5" stroke-miterlimit="10"/>
<path d="M18.5234 33.7402L24.3222 32.3556" stroke="#EF962D" stroke-width="0.5" stroke-miterlimit="10"/>
<path d="M18.4561 71.7326L24.5582 69.5713" stroke="#EF962D" stroke-width="0.5" stroke-miterlimit="10"/>
<path d="M279.129 81.0873L284.354 83.6539" stroke="#EF962D" stroke-width="0.5" stroke-miterlimit="10"/>
</g>
</svg>
