<svg width="100" height="101" viewBox="0 0 100 101" fill="none" xmlns="http://www.w3.org/2000/svg">
<circle cx="50" cy="50.5" r="49" stroke="#3E41DE" stroke-width="2"/>
<path d="M42.1523 27.3992C42.1523 26.8449 42.3824 26.3155 42.7875 25.9372L48.0354 21.038C48.4058 20.6923 48.8936 20.5 49.4003 20.5H66.0002C66.5525 20.5 67.0002 20.9477 67.0002 21.5V48.5C67.0002 49.0523 66.5525 49.5 66.0002 49.5H43.1523C42.6001 49.5 42.1523 49.0523 42.1523 48.5V27.3992Z" stroke="#3E41DE" stroke-width="2"/>
<path d="M50.4445 20.5V26.5C50.4445 27.6046 49.5491 28.5 48.4445 28.5H42.1836" stroke="#3E41DE" stroke-width="2"/>
<path d="M46.3145 32.5H63.8688" stroke="#3E41DE" stroke-width="2" stroke-linecap="round"/>
<path d="M50.4453 36.5H63.8693" stroke="#3E41DE" stroke-width="2" stroke-linecap="round"/>
<path d="M46.3145 40.5L63.8688 40.5" stroke="#3E41DE" stroke-width="2" stroke-linecap="round"/>
<path d="M46.3145 44.5L63.8688 44.5" stroke="#3E41DE" stroke-width="2" stroke-linecap="round"/>
<path d="M30.6191 54.6C34.543 54.6 36.918 54.6 39.9126 54.6C44.3528 54.6 46.5213 58.8 49.4126 58.8C53.4398 58.8 57.5702 58.8 61.5974 58.8C63.5593 58.8 65.1083 60.3 65.1083 62.2C65.1083 64.1 63.5593 65.6 61.5974 65.6H48.8963M30.1028 67.3L39.0865 71.7C40.842 72.6 42.7007 73 44.6626 73H56.9506C59.1191 73 61.2876 72.4 63.2496 71.3L76.2604 64C77.8093 63.1 78.3256 61.2 77.3963 59.8C77.293 59.7 77.293 59.6 77.293 59.5C76.1572 58 74.092 57.5 72.3365 58.4L65.5213 62.2M16.3691 51.5H29.793V69.5H16.3691V51.5Z" stroke="#3E41DE" stroke-width="2" stroke-miterlimit="10" stroke-linecap="round" stroke-linejoin="round"/>
<path d="M20.5 58.5V66.5" stroke="#3E41DE" stroke-width="1.6068" stroke-miterlimit="10" stroke-linecap="round"/>
<ellipse cx="20.4995" cy="54.5" rx="1.03265" ry="1" fill="#3E41DE"/>
<circle cx="47" cy="36.5" r="1" fill="#3E41DE"/>
</svg>
