<svg width="100" height="101" viewBox="0 0 100 101" fill="none" xmlns="http://www.w3.org/2000/svg">
<circle cx="50" cy="50.5" r="49" stroke="#3E41DE" stroke-width="2"/>
<path d="M61.4779 42.168H40.429C39.8354 42.168 39.3496 42.6338 39.3496 43.2031C39.3496 43.7725 39.8354 44.2383 40.429 44.2383H61.4779C62.0716 44.2383 62.5574 43.7725 62.5574 43.2031C62.5574 42.6338 62.0716 42.168 61.4779 42.168Z" fill="#3E41DE"/>
<path d="M61.4783 46.8262H35.5716C34.9779 46.8262 34.4922 47.292 34.4922 47.8613C34.4922 48.4307 34.9779 48.8965 35.5716 48.8965H61.4783C62.072 48.8965 62.5577 48.4307 62.5577 47.8613C62.5577 47.292 62.072 46.8262 61.4783 46.8262Z" fill="#3E41DE"/>
<path d="M35.5716 39.5801H61.4783C62.072 39.5801 62.5577 39.1143 62.5577 38.5449C62.5577 37.9756 62.072 37.5098 61.4783 37.5098H35.5716C34.9779 37.5098 34.4922 37.9756 34.4922 38.5449C34.4922 39.1143 34.9779 39.5801 35.5716 39.5801Z" fill="#3E41DE"/>
<path d="M46.3662 51.4844H35.5716C34.9779 51.4844 34.4922 51.9502 34.4922 52.5195C34.4922 53.0889 34.9779 53.5547 35.5716 53.5547H46.3662C46.9599 53.5547 47.4457 53.0889 47.4457 52.5195C47.4457 51.9502 46.9599 51.4844 46.3662 51.4844Z" fill="#3E41DE"/>
<path d="M42.0484 56.1426H35.5716C34.9779 56.1426 34.4922 56.6084 34.4922 57.1777C34.4922 57.7471 34.9779 58.2129 35.5716 58.2129H42.0484C42.6421 58.2129 43.1278 57.7471 43.1278 57.1777C43.1278 56.6084 42.6421 56.1426 42.0484 56.1426Z" fill="#3E41DE"/>
<path d="M35.5717 44.2383C36.1654 44.2383 36.6511 43.7725 36.6511 43.2031C36.6511 42.6338 36.1654 42.168 35.5717 42.168C34.9779 42.168 34.4922 42.6338 34.4922 43.2031C34.4922 43.7725 34.9779 44.2383 35.5717 44.2383Z" fill="#3E41DE"/>
<path d="M65.7956 58.2441C64.932 58.2441 64.1224 58.565 63.5072 59.1551L60.0422 62.478L59.4485 61.9086C58.8333 61.3186 58.0237 60.9977 57.1602 60.9977C56.2966 60.9977 55.487 61.3186 54.8718 61.9086C54.2565 62.4987 53.9219 63.2854 53.9219 64.1135C53.9219 64.9417 54.2565 65.718 54.8718 66.3081L57.7538 69.072C58.3799 69.6724 59.2111 69.9829 60.0422 69.9829C60.8734 69.9829 61.7045 69.6827 62.3306 69.072L68.0839 63.5545C69.3469 62.3434 69.3469 60.3766 68.0839 59.1654C67.4687 58.5754 66.6591 58.2441 65.7956 58.2441ZM66.5619 62.0846L60.8086 67.602C60.3876 68.0057 59.7076 68.0057 59.2866 67.602L56.4046 64.8381C56.1995 64.6415 56.0915 64.3827 56.0915 64.1032C56.0915 63.8237 56.1995 63.5649 56.4046 63.3682C56.6096 63.1715 56.8795 63.068 57.1709 63.068C57.4624 63.068 57.7322 63.1715 57.9373 63.3682L59.2866 64.6622C59.4917 64.8588 59.7616 64.9624 60.053 64.9624C60.3445 64.9624 60.6143 64.8485 60.8194 64.6622L65.0507 60.6043C65.2558 60.4076 65.5257 60.3041 65.8171 60.3041C66.1086 60.3041 66.3784 60.4076 66.5835 60.6043C66.9829 61.0287 66.9829 61.6809 66.5619 62.0846Z" fill="#3E41DE"/>
<path d="M70.1136 52.7266H69.0342V24.5703C69.0342 23.4316 68.0627 22.5 66.8753 22.5H39.8894C39.598 22.5 39.3281 22.6139 39.123 22.8002L28.3287 33.1518C28.1344 33.3484 28.0156 33.6176 28.0156 33.8867V69.2891C28.0156 70.4277 28.9871 71.3594 30.1745 71.3594H49.6043V72.3945C49.6043 74.1025 51.0616 75.5 52.8426 75.5H70.1136C71.8947 75.5 73.3519 74.1025 73.3519 72.3945V55.832C73.3519 54.124 71.8947 52.7266 70.1136 52.7266ZM38.81 26.0299V32.8516H31.6965L38.81 26.0299ZM30.1745 69.2891V34.9219H38.81C39.9974 34.9219 40.9689 33.9902 40.9689 32.8516V24.5703H66.8753V52.7266H52.8426C51.0616 52.7266 49.6043 54.124 49.6043 55.832V69.2891H30.1745ZM71.1931 72.3945C71.1931 72.9639 70.7073 73.4297 70.1136 73.4297H52.8426C52.249 73.4297 51.7632 72.9639 51.7632 72.3945V55.832C51.7632 55.2627 52.249 54.7969 52.8426 54.7969H70.1136C70.7073 54.7969 71.1931 55.2627 71.1931 55.832V72.3945Z" fill="#3E41DE"/>
</svg>
