<svg width="100" height="101" viewBox="0 0 100 101" fill="none" xmlns="http://www.w3.org/2000/svg">
<circle cx="50" cy="50.5" r="49" stroke="#3E41DE" stroke-width="2"/>
<circle cx="42" cy="46.5" r="9" stroke="#3E41DE" stroke-width="2"/>
<mask id="path-3-inside-1_401_14895" fill="white">
<path fill-rule="evenodd" clip-rule="evenodd" d="M33.122 56.5735C26.5307 59.8441 22 66.643 22 74.5H62C62 66.643 57.4693 59.8441 50.878 56.5735C48.6831 58.9858 45.5184 60.5 42 60.5C38.4816 60.5 35.3169 58.9858 33.122 56.5735Z"/>
</mask>
<path d="M33.122 56.5735L34.6012 55.2275L33.5853 54.111L32.233 54.782L33.122 56.5735ZM22 74.5H20V76.5H22V74.5ZM62 74.5V76.5H64V74.5H62ZM50.878 56.5735L51.767 54.782L50.4147 54.111L49.3988 55.2275L50.878 56.5735ZM32.233 54.782C24.9874 58.3772 20 65.8543 20 74.5H24C24 67.4316 28.0739 61.3111 34.0109 58.3651L32.233 54.782ZM22 76.5H62V72.5H22V76.5ZM64 74.5C64 65.8543 59.0126 58.3772 51.767 54.782L49.9891 58.3651C55.9261 61.3111 60 67.4316 60 74.5H64ZM49.3988 55.2275C47.5669 57.2408 44.9319 58.5 42 58.5V62.5C46.1048 62.5 49.7993 60.7308 52.3573 57.9196L49.3988 55.2275ZM42 58.5C39.0681 58.5 36.4331 57.2408 34.6012 55.2275L31.6427 57.9196C34.2007 60.7308 37.8952 62.5 42 62.5V58.5Z" fill="#3E41DE" mask="url(#path-3-inside-1_401_14895)"/>
<circle cx="42" cy="64.5" r="1" fill="#3E41DE"/>
<path d="M42 67.5V73.5" stroke="#3E41DE" stroke-width="2" stroke-linecap="round"/>
<mask id="path-7-inside-2_401_14895" fill="white">
<path fill-rule="evenodd" clip-rule="evenodd" d="M62 22.5C59.7909 22.5 58 24.2909 58 26.5V40.8672V44.7333V51.5005L65.637 44.7333H79C81.2091 44.7333 83 42.9425 83 40.7333V26.5C83 24.2909 81.2091 22.5 79 22.5H62Z"/>
</mask>
<path d="M58 51.5005H56V55.945L59.3264 52.9974L58 51.5005ZM65.637 44.7333V42.7333H64.8783L64.3105 43.2365L65.637 44.7333ZM60 26.5C60 25.3954 60.8954 24.5 62 24.5V20.5C58.6863 20.5 56 23.1863 56 26.5H60ZM60 40.8672V26.5H56V40.8672H60ZM60 44.7333V40.8672H56V44.7333H60ZM60 51.5005V44.7333H56V51.5005H60ZM64.3105 43.2365L56.6736 50.0036L59.3264 52.9974L66.9634 46.2302L64.3105 43.2365ZM79 42.7333H65.637V46.7333H79V42.7333ZM81 40.7333C81 41.8379 80.1046 42.7333 79 42.7333V46.7333C82.3137 46.7333 85 44.047 85 40.7333H81ZM81 26.5V40.7333H85V26.5H81ZM79 24.5C80.1046 24.5 81 25.3954 81 26.5H85C85 23.1863 82.3137 20.5 79 20.5V24.5ZM62 24.5H79V20.5H62V24.5Z" fill="#3E41DE" mask="url(#path-7-inside-2_401_14895)"/>
<path d="M69.4863 36.4961C69.4993 35.7214 69.5872 35.1094 69.75 34.6602C69.9128 34.2109 70.2448 33.7129 70.7461 33.166L72.0254 31.8477C72.5723 31.2292 72.8457 30.5651 72.8457 29.8555C72.8457 29.1719 72.6667 28.638 72.3086 28.2539C71.9505 27.8633 71.4297 27.668 70.7461 27.668C70.082 27.668 69.5482 27.8438 69.1445 28.1953C68.7409 28.5469 68.5391 29.0189 68.5391 29.6113H66.7324C66.7454 28.5566 67.1198 27.707 67.8555 27.0625C68.5977 26.4115 69.5612 26.0859 70.7461 26.0859C71.9766 26.0859 72.9336 26.418 73.6172 27.082C74.3073 27.7396 74.6523 28.6445 74.6523 29.7969C74.6523 30.9362 74.125 32.0592 73.0703 33.166L72.0059 34.2207C71.5306 34.748 71.293 35.5065 71.293 36.4961H69.4863ZM69.4082 39.5918C69.4082 39.2988 69.4961 39.0547 69.6719 38.8594C69.8542 38.6576 70.1211 38.5566 70.4727 38.5566C70.8242 38.5566 71.0911 38.6576 71.2734 38.8594C71.4557 39.0547 71.5469 39.2988 71.5469 39.5918C71.5469 39.8848 71.4557 40.1289 71.2734 40.3242C71.0911 40.513 70.8242 40.6074 70.4727 40.6074C70.1211 40.6074 69.8542 40.513 69.6719 40.3242C69.4961 40.1289 69.4082 39.8848 69.4082 39.5918Z" fill="#3E41DE"/>
</svg>
