<svg width="144" height="142" viewBox="0 0 144 142" fill="none" xmlns="http://www.w3.org/2000/svg">
<g clip-path="url(#clip0_401_14541)">
<path d="M45.8 28.4606V51.2606H56C66.2667 51.2606 75.4 52.0606 83.4 53.6606C91.5333 55.2606 98.3333 57.8606 103.8 61.4606C109.4 65.0606 113.667 69.7273 116.6 75.4606C119.533 81.194 121 88.194 121 96.4606C121 111.794 115.4 123.261 104.2 130.861C93.1333 138.327 77.2667 142.061 56.6 142.061C51 142.061 44.6 141.727 37.4 141.061C30.3333 140.394 23.2 139.194 16 137.461V2.06064H108V28.4606H45.8ZM58.2 115.461C62.3333 115.461 66.2667 115.194 70 114.661C73.7333 114.127 77 113.194 79.8 111.861C82.7333 110.394 85.0667 108.461 86.8 106.061C88.5333 103.661 89.4 100.527 89.4 96.6606C89.4 92.6606 88.6 89.394 87 86.8606C85.4 84.3273 83.1333 82.3273 80.2 80.8606C77.2667 79.394 73.6667 78.394 69.4 77.8606C65.1333 77.3273 60.3333 77.0606 55 77.0606H45.8V115.061C47.2667 115.194 49 115.327 51 115.461C53.1333 115.461 55.5333 115.461 58.2 115.461Z" fill="#E7EDFB"/>
</g>
<defs>
<clipPath id="clip0_401_14541">
<rect width="144" height="142" fill="white" transform="translate(0 0.000488281)"/>
</clipPath>
</defs>
</svg>
