<svg width="315" height="165" viewBox="0 0 315 165" fill="none" xmlns="http://www.w3.org/2000/svg">
<mask id="mask0_699_994" style="mask-type:alpha" maskUnits="userSpaceOnUse" x="0" y="0" width="315" height="165">
<path d="M0 0.5H315V155.5C315 160.471 310.971 164.5 306 164.5H9C4.02944 164.5 0 160.471 0 155.5V0.5Z" fill="#C4C4C4"/>
</mask>
<g mask="url(#mask0_699_994)">
<path d="M278.588 -6.75639L325 75.9875" stroke="#E8613E" stroke-width="0.5" stroke-miterlimit="10" stroke-linecap="round"/>
<path d="M-12.4004 97.6981L93.6048 58.1538" stroke="#E8613E" stroke-width="0.5" stroke-miterlimit="10" stroke-linecap="round"/>
<path d="M278.588 112.873L81.8633 58.1538" stroke="#E8613E" stroke-width="0.5" stroke-miterlimit="10" stroke-linecap="round"/>
<path d="M194.293 99.0272L324.999 125.944" stroke="#E8613E" stroke-width="0.5" stroke-miterlimit="10" stroke-linecap="round"/>
<path d="M208.361 100.024L-12.4004 129.71" stroke="#E8613E" stroke-width="0.5" stroke-miterlimit="10" stroke-linecap="round"/>
<path d="M197.395 233.057L324.999 158.067" stroke="#E8613E" stroke-width="0.5" stroke-miterlimit="10" stroke-linecap="round"/>
<path d="M300.188 0.332764L-12.4004 112.541" stroke="#E8613E" stroke-width="0.5" stroke-miterlimit="10" stroke-linecap="round"/>
<path d="M101.137 136.578L-12.4004 138.904" stroke="#E8613E" stroke-width="0.5" stroke-miterlimit="10" stroke-linecap="round"/>
<path d="M81.8633 136.578L324.999 140.898" stroke="#E8613E" stroke-width="0.5" stroke-miterlimit="10" stroke-linecap="round"/>
<path d="M87.5127 208.466L325 148.319" stroke="#E8613E" stroke-width="0.5" stroke-miterlimit="10" stroke-linecap="round"/>
<path d="M95.0449 206.473V61.8093L102.023 63.8032V204.7L95.0449 206.473Z" stroke="#E8613E" stroke-width="0.1919" stroke-miterlimit="10" stroke-linecap="round"/>
<path d="M95.0445 61.8093L88.3984 63.9139V204.479L95.0445 206.473V61.8093Z" stroke="#E8613E" stroke-width="0.1919" stroke-miterlimit="10" stroke-linecap="round"/>
<path d="M127.832 111.323V209.352L132.817 210.792V110.658L127.832 111.323Z" stroke="#E8613E" stroke-width="0.1919" stroke-miterlimit="10" stroke-linecap="round"/>
<path d="M132.816 110.658L138.023 111.433V208.909L132.816 210.792" stroke="#E8613E" stroke-width="0.1919" stroke-miterlimit="10" stroke-linecap="round"/>
<path d="M202.822 229.845V100.8L195.732 101.686V227.962L202.822 229.845Z" stroke="#E8613E" stroke-width="0.1919" stroke-miterlimit="10" stroke-linecap="round"/>
<path d="M202.822 100.8L209.358 102.129V226.079L202.822 229.845V100.8Z" stroke="#E8613E" stroke-width="0.1919" stroke-miterlimit="10" stroke-linecap="round"/>
<path d="M285.566 5.64954V207.691L289.443 204.035V12.5172L285.566 5.64954Z" stroke="#E8613E" stroke-miterlimit="10" stroke-linecap="round"/>
<path d="M285.566 5.64954L279.474 7.75413V206.915L285.566 207.691V5.64954Z" stroke="#E8613E" stroke-miterlimit="10" stroke-linecap="round"/>
<path d="M316.802 61.2555L313.146 62.4739V178.337H316.802" stroke="#E8613E" stroke-width="0.1919" stroke-miterlimit="10" stroke-linecap="round"/>
<path d="M174.133 45.6371V192.405L179.339 193.291V43.754L174.133 45.6371Z" stroke="#E8613E" stroke-width="0.5" stroke-miterlimit="10" stroke-linecap="round"/>
<path d="M179.339 43.754L184.767 46.634V190.854L179.339 193.291V43.754Z" stroke="#E8613E" stroke-width="0.5" stroke-miterlimit="10" stroke-linecap="round"/>
<path d="M313.147 199.826L262.858 194.62V113.095" stroke="#E8613E" stroke-miterlimit="10" stroke-linecap="round"/>
<path d="M256.544 28.1356L200.385 46.7447" stroke="#E8613E" stroke-miterlimit="10" stroke-linecap="round"/>
<path d="M203.93 42.9788V100.8" stroke="#E8613E" stroke-miterlimit="10" stroke-linecap="round"/>
<path d="M203.93 45.637L215.45 50.6215L253.886 38.6586" stroke="#E8613E" stroke-miterlimit="10" stroke-linecap="round"/>
<path d="M215.45 50.6216V102.683" stroke="#E8613E" stroke-miterlimit="10" stroke-linecap="round"/>
<path d="M219.438 104.234V53.5017L253.886 42.9788" stroke="#E8613E" stroke-miterlimit="10" stroke-linecap="round"/>
<path d="M219.438 53.5015L222.317 55.163L253.886 45.637" stroke="#E8613E" stroke-miterlimit="10" stroke-linecap="round"/>
<path d="M222.316 55.1632V104.787" stroke="#E8613E" stroke-miterlimit="10" stroke-linecap="round"/>
<path d="M240.483 47.077V108.553" stroke="#E8613E" stroke-miterlimit="10" stroke-linecap="round"/>
<path d="M243.143 109.107V46.3018L245.247 48.1848V109.55" stroke="#E8613E" stroke-width="0.3838" stroke-miterlimit="10" stroke-linecap="round" stroke-linejoin="round"/>
<path d="M294.76 47.2986V100.8L309.603 108.332V66.9046L294.76 47.2986Z" stroke="#E8613E" stroke-miterlimit="10" stroke-linecap="round"/>
<path d="M309.603 66.9046H305.394L294.76 55.717" stroke="#E8613E" stroke-miterlimit="10" stroke-linecap="round"/>
<path d="M305.393 66.9044V106.116" stroke="#E8613E" stroke-miterlimit="10" stroke-linecap="round"/>
<path d="M303.954 105.452V67.9015L294.76 58.1539" stroke="#E8613E" stroke-miterlimit="10" stroke-linecap="round"/>
<path d="M303.954 67.9016H302.846L294.76 60.1478" stroke="#E8613E" stroke-miterlimit="10" stroke-linecap="round"/>
<path d="M302.846 67.9015V104.898" stroke="#E8613E" stroke-miterlimit="10" stroke-linecap="round"/>
<path d="M188.975 226.411V118.523L142.01 123.396V213.229L153.973 208.466V122.178" stroke="#E8613E" stroke-miterlimit="10" stroke-linecap="round"/>
<path d="M169.702 130.818L157.961 131.704V153.636H169.702V130.818Z" stroke="#E8613E" stroke-miterlimit="10" stroke-linecap="round"/>
<path d="M172.36 130.818V153.636H186.871V129.71L172.36 130.818Z" stroke="#E8613E" stroke-miterlimit="10" stroke-linecap="round"/>
<path d="M157.961 156.516H169.702V177.562L157.961 176.787V156.516Z" stroke="#E8613E" stroke-miterlimit="10" stroke-linecap="round"/>
<path d="M172.36 156.516V177.562L186.871 178.337V156.738L172.36 156.516Z" stroke="#E8613E" stroke-miterlimit="10" stroke-linecap="round"/>
<path d="M216.778 118.523V139.015L257.763 139.679V123.618L216.778 118.523Z" stroke="#E8613E" stroke-miterlimit="10" stroke-linecap="round"/>
<path d="M253.222 139.568V123.064" stroke="#E8613E" stroke-miterlimit="10" stroke-linecap="round"/>
<path d="M235.831 120.959V139.347" stroke="#E8613E" stroke-miterlimit="10" stroke-linecap="round"/>
<path d="M239.153 121.292V139.347" stroke="#E8613E" stroke-miterlimit="10" stroke-linecap="round"/>
<path d="M233.394 120.959V139.236" stroke="#E8613E" stroke-miterlimit="10" stroke-linecap="round"/>
<path d="M294.76 128.27V140.344L309.603 140.566V130.375L294.76 128.27Z" stroke="#E8613E" stroke-miterlimit="10" stroke-linecap="round"/>
<path d="M307.388 130.042V140.565" stroke="#E8613E" stroke-miterlimit="10" stroke-linecap="round"/>
<path d="M302.182 129.267V140.455" stroke="#E8613E" stroke-miterlimit="10" stroke-linecap="round"/>
<path d="M300.188 129.156V140.454" stroke="#E8613E" stroke-miterlimit="10" stroke-linecap="round"/>
<path d="M298.858 128.824V140.455" stroke="#E8613E" stroke-miterlimit="10" stroke-linecap="round"/>
<path d="M-8.63477 94.2642V184.873L191.08 273.044L285.566 196.946L262.858 194.62L202.822 229.844V100.799L106.564 113.649V203.592" stroke="#E8613E" stroke-width="2" stroke-miterlimit="10" stroke-linecap="round"/>
<path d="M285.566 0.332886V117.858" stroke="#E8613E" stroke-width="2" stroke-miterlimit="10" stroke-linecap="round"/>
<path d="M88.6201 60.0369V136.91H95.0447V206.472L106.565 203.592L142.01 213.229" stroke="#E8613E" stroke-width="2" stroke-miterlimit="10" stroke-linecap="round"/>
<path d="M22.6017 184.097L-2.09961 187.531V138.904L22.1586 138.239L22.6017 184.097ZM22.6017 184.097L95.0441 206.473" stroke="#E8613E" stroke-width="2" stroke-miterlimit="10" stroke-linecap="round"/>
<path d="M190.97 296.638L319.128 176.233V65.4644L285.566 5.64954L174.133 45.6369V83.8519L88.6197 60.0367L-8.63477 96.5902" stroke="#E8613E" stroke-width="2" stroke-miterlimit="10" stroke-linecap="round"/>
<path d="M174.133 83.8521V104.566" stroke="#E8613E" stroke-width="2" stroke-miterlimit="10" stroke-linecap="round"/>
<path d="M285.566 196.946V117.858" stroke="#E8613E" stroke-width="2" stroke-miterlimit="10" stroke-linecap="round"/>
<path d="M202.822 100.8L262.526 113.095L262.859 194.62" stroke="#E8613E" stroke-width="2" stroke-miterlimit="10" stroke-linecap="round"/>
<path d="M107.34 78.4246V100.8L167.376 112.541V93.8213L107.34 78.4246Z" stroke="#E8613E" stroke-miterlimit="10" stroke-linecap="round"/>
<path d="M167.376 93.8212L162.502 95.0396L162.723 111.655" stroke="#E8613E" stroke-miterlimit="10" stroke-linecap="round"/>
<path d="M162.502 95.0396L107.34 81.3043" stroke="#E8613E" stroke-miterlimit="10" stroke-linecap="round"/>
<path d="M160.841 111.212V96.0366L107.34 82.8552" stroke="#E8613E" stroke-miterlimit="10" stroke-linecap="round"/>
<path d="M160.841 96.0366H159.512V110.99" stroke="#E8613E" stroke-miterlimit="10" stroke-linecap="round"/>
<path d="M148.436 93.0459V108.775" stroke="#E8613E" stroke-miterlimit="10" stroke-linecap="round"/>
<path d="M146.552 92.4921V108.332" stroke="#E8613E" stroke-miterlimit="10" stroke-linecap="round"/>
<path d="M145.223 92.4921V108.221" stroke="#E8613E" stroke-miterlimit="10" stroke-linecap="round"/>
<path d="M127.832 88.1719V104.787" stroke="#E8613E" stroke-miterlimit="10" stroke-linecap="round"/>
<path d="M125.174 104.234V87.286" stroke="#E8613E" stroke-miterlimit="10" stroke-linecap="round"/>
<path d="M123.733 86.9536V103.901" stroke="#E8613E" stroke-miterlimit="10" stroke-linecap="round"/>
<path d="M88.6201 136.91L22.1592 138.239" stroke="#E8613E" stroke-width="2" stroke-miterlimit="10" stroke-linecap="round"/>
<path d="M71.0078 82.6335V118.412" stroke="#E8613E" stroke-miterlimit="10" stroke-linecap="round"/>
<path d="M44.4238 92.1597V122.067" stroke="#E8613E" stroke-miterlimit="10" stroke-linecap="round"/>
<path d="M28.252 97.9196V124.172" stroke="#E8613E" stroke-miterlimit="10" stroke-linecap="round"/>
<path d="M6.7627 105.673V127.716" stroke="#E8613E" stroke-miterlimit="10" stroke-linecap="round"/>
<path d="M6.7627 105.673L9.97497 106.116V126.609" stroke="#E8613E" stroke-miterlimit="10" stroke-linecap="round"/>
<path d="M9.97461 106.117L28.2514 100.246" stroke="#E8613E" stroke-miterlimit="10" stroke-linecap="round"/>
<path d="M44.4238 92.1597L48.7438 92.7135V121.402" stroke="#E8613E" stroke-miterlimit="10" stroke-linecap="round"/>
<path d="M48.7441 92.7135L71.0086 84.9597" stroke="#E8613E" stroke-miterlimit="10" stroke-linecap="round"/>
<path d="M50.0723 121.292V93.4888L71.0075 86.5104" stroke="#E8613E" stroke-miterlimit="10" stroke-linecap="round"/>
<path d="M61.9248 89.5013V119.63" stroke="#E8613E" stroke-miterlimit="10" stroke-linecap="round"/>
<path d="M63.6973 119.409V88.9475L64.9157 89.5014V119.298" stroke="#E8613E" stroke-miterlimit="10" stroke-linecap="round"/>
<path d="M50.0723 93.4889L51.0692 93.932V121.181" stroke="#E8613E" stroke-miterlimit="10" stroke-linecap="round"/>
<path d="M51.0693 93.9319L61.9246 90.3873" stroke="#E8613E" stroke-miterlimit="10" stroke-linecap="round"/>
<path d="M64.916 89.5012L71.0083 87.3966" stroke="#E8613E" stroke-miterlimit="10" stroke-linecap="round"/>
<path d="M11.083 126.498V106.781L28.2521 101.686" stroke="#E8613E" stroke-miterlimit="10" stroke-linecap="round"/>
<path d="M19.7227 104.233V125.39" stroke="#E8613E" stroke-miterlimit="10" stroke-linecap="round"/>
<path d="M20.8301 125.169V103.901L21.6055 104.234V125.058" stroke="#E8613E" stroke-miterlimit="10" stroke-linecap="round"/>
<path d="M11.083 106.781L11.8584 107.003V126.387" stroke="#E8613E" stroke-miterlimit="10" stroke-linecap="round"/>
<path d="M11.8574 107.002L19.722 104.787" stroke="#E8613E" stroke-miterlimit="10" stroke-linecap="round"/>
<path d="M21.6055 104.234L28.2516 102.24" stroke="#E8613E" stroke-miterlimit="10" stroke-linecap="round"/>
<path d="M88.3984 37.8833V276.921" stroke="#E8613E" stroke-width="0.5" stroke-miterlimit="10" stroke-linecap="round"/>
<path d="M95.0449 40.5416V283.789" stroke="#E8613E" stroke-width="0.5" stroke-miterlimit="10" stroke-linecap="round"/>
<path d="M173.801 35.557V306.718" stroke="#E8613E" stroke-width="0.5" stroke-miterlimit="10" stroke-linecap="round"/>
<path d="M285.566 -12.184V232.614" stroke="#E8613E" stroke-width="0.5" stroke-miterlimit="10" stroke-linecap="round"/>
<path d="M132.816 18.9418V222.645" stroke="#E8613E" stroke-width="0.5" stroke-miterlimit="10" stroke-linecap="round"/>
<path d="M203.154 81.7476V239.703" stroke="#E8613E" stroke-width="0.5" stroke-miterlimit="10" stroke-linecap="round"/>
<path d="M-12.4004 86.5105L298.858 -37.2177" stroke="#E8613E" stroke-width="0.5" stroke-miterlimit="10" stroke-linecap="round"/>
<path d="M324.999 61.2553L268.507 -37.2177" stroke="#E8613E" stroke-width="0.5" stroke-miterlimit="10" stroke-linecap="round"/>
<path d="M253.886 26.585V111.101" stroke="#E8613E" stroke-miterlimit="10" stroke-linecap="round"/>
<path d="M28.8057 142.892H88.399V180.664L28.8057 172.356V142.892Z" stroke="#E8613E" stroke-miterlimit="10" stroke-linecap="round"/>
<path d="M32.5718 142.892V171.802L28.8057 172.356" stroke="#E8613E" stroke-miterlimit="10" stroke-linecap="round"/>
<path d="M34.4541 142.892V170.584L88.3982 176.897" stroke="#E8613E" stroke-miterlimit="10" stroke-linecap="round"/>
<path d="M58.6016 142.892V173.464" stroke="#E8613E" stroke-miterlimit="10" stroke-linecap="round"/>
<path d="M63.0322 173.796V142.892" stroke="#E8613E" stroke-miterlimit="10" stroke-linecap="round"/>
<path d="M61.3711 142.892V173.796" stroke="#E8613E" stroke-miterlimit="10" stroke-linecap="round"/>
<path d="M34.4541 170.584H35.7833V142.892" stroke="#E8613E" stroke-miterlimit="10" stroke-linecap="round"/>
</g>
</svg>
