<svg width="19" height="18" viewBox="0 0 19 18" fill="none" xmlns="http://www.w3.org/2000/svg">
<path d="M8 13.861L12 8.93048L8 4" stroke="#4A4F53" stroke-linecap="round" stroke-linejoin="round"/>
<path d="M12 8.92969H1" stroke="#4A4F53" stroke-linecap="round" stroke-linejoin="round"/>
<path d="M2 6.17521V3.31734C1.99999 2.7142 2.27951 2.13561 2.77739 1.70817C3.27527 1.28072 3.95097 1.03923 4.65667 1.03651L15.2673 1.00002C15.6179 0.998818 15.9653 1.05666 16.2897 1.17025C16.6141 1.28383 16.9091 1.45094 17.158 1.662C17.4068 1.87307 17.6045 2.12397 17.7398 2.40037C17.8752 2.67676 17.9454 2.97324 17.9467 3.27286C17.9467 3.27286 17.9467 3.27286 17.9467 3.27286L18 14.7101C18.0014 15.0103 17.9335 15.3079 17.8 15.5857C17.6665 15.8635 17.4701 16.116 17.2222 16.3287C16.9742 16.5415 16.6796 16.7103 16.3551 16.8255C16.0306 16.9407 15.6827 17 15.3314 17H4.66867C3.9609 17 3.28211 16.7597 2.78164 16.332C2.28116 15.9042 2 15.3241 2 14.7192V11.8773" stroke="#4A4F53" stroke-linecap="round" stroke-linejoin="round"/>
</svg>
