<svg width="186" height="20" viewBox="0 0 186 20" fill="none" xmlns="http://www.w3.org/2000/svg">
<g clip-path="url(#clip0_401_13865)">
<path fill-rule="evenodd" clip-rule="evenodd" d="M0 19.5652H20.7987V0H0V19.5652ZM2.59955 14.3996C3.10275 13.8269 3.60594 13.2542 4.36073 12.7633C7.3799 10.6362 10.4829 11.0452 10.3991 11.0452L19.5404 14.5632V17.0177L10.5668 13.5815C10.5668 13.5815 7.1283 12.3543 3.6898 14.8905C1.72737 16.3263 1.27967 18.5398 1.18077 19.0288L1.17383 19.063V17.9176C1.17383 17.8441 1.19077 17.8036 1.20943 17.759C1.23228 17.7044 1.25769 17.6437 1.25769 17.5085C1.42543 16.6086 1.76089 15.545 2.59955 14.3996L2.59955 14.3996ZM3.77367 9.57193C2.09635 11.29 1.42543 13.499 1.17383 15.2171V17.5897C1.34156 15.1353 2.26408 12.7627 4.193 11.0446C7.1283 8.50835 10.3991 8.50835 10.3991 8.50835L19.5404 12.0263V9.49011L10.4829 6.13574C10.4829 6.13574 6.96057 6.38118 3.77367 9.57193ZM1.25913 11.6995C1.42686 10.7996 1.93006 8.42695 3.18804 6.62704C6.29108 2.20909 10.4005 1.14551 10.4005 1.14551L19.6257 4.58169V7.03611L10.4005 3.59993C10.4005 3.59993 6.96201 4.33625 4.0267 7.44518C1.67846 9.98141 1.25913 13.4994 1.17526 14.8084C1.17526 14.8084 1.0914 12.8449 1.25913 11.6995Z" fill="#3E41DE"/>
<path fill-rule="evenodd" clip-rule="evenodd" d="M186.001 0.289855V19.9275V20H181.024V9.27536L174.562 20H170.253V0.289855H175.23V11.0145L181.693 0.289855H186.001ZM167.356 0.217391V4.56522H162.454V19.9275H157.477V4.56522H152.5V0.217391H167.356ZM143.809 15.5797C145.072 15.5797 145.815 14.7826 145.815 13.6232C145.815 12.4638 144.998 11.5942 143.809 11.5942H140.689V15.5797H143.809ZM144.032 7.31884C148.266 7.31884 150.792 9.92754 150.792 13.6232C150.792 17.3188 148.266 19.9275 144.032 19.9275H135.713V0.217391H149.529V4.56522H140.689V7.31884H144.032ZM125.685 8.55072C126.947 8.55072 127.839 7.75362 127.839 6.5942C127.839 5.43478 126.873 4.63768 125.685 4.63768H122.862V8.55072H125.685ZM125.833 0.289855C129.844 0.289855 132.741 2.89855 132.741 6.5942C132.741 10.2899 129.919 12.8986 125.833 12.971H122.788V20H117.811V0.289855H125.833ZM108.749 14.8551C109.269 14.2029 109.491 13.1159 109.491 10.5797V9.2029C109.491 7.3913 109.269 5.94203 108.749 5.21739C108.303 4.63768 107.56 4.34783 106.743 4.34783C105.926 4.34783 105.183 4.63768 104.737 5.21739C104.217 5.86957 103.995 7.31884 103.995 9.2029V10.5797C103.995 13.1159 104.217 14.2029 104.737 14.8551C105.183 15.3623 105.926 15.7246 106.743 15.7246C107.56 15.7246 108.303 15.4348 108.749 14.8551ZM112.463 2.24638C113.874 3.69565 114.468 5.50725 114.468 8.33333V10.7971C114.468 13.4058 114.394 15.8696 112.463 17.8261C110.977 19.3478 109.12 20.0725 106.817 20.0725C104.515 20.0725 102.658 19.3478 101.172 17.8261C99.1663 15.7971 99.1663 13.1884 99.1663 10.7971V9.34783C99.1663 5.50725 99.612 3.84058 101.172 2.24638C102.658 0.724638 104.515 0 106.817 0C109.12 0 110.977 0.724638 112.463 2.24638ZM98.0521 0V4.34783H89.8812V19.5652H84.6815V0H98.0521ZM77.1791 13.6957H82.2302C81.4874 18.0435 78.3676 20.0725 74.505 20.1449C72.128 20.1449 70.3452 19.3478 68.8596 17.8986C66.8492 15.8673 66.8515 13.2268 66.8538 10.3696C66.8539 10.2708 66.854 10.1718 66.854 10.0725C66.854 9.97638 66.8539 9.88052 66.8539 9.78491C66.8515 6.92418 66.8494 4.28455 68.9339 2.3913C70.4195 0.942029 72.2023 0.144928 74.5793 0.144928C78.3676 0.144928 81.4874 2.24638 82.2302 6.5942H77.1791C76.882 5.50725 76.2134 4.49275 74.5793 4.49275C73.6879 4.49275 73.0193 4.85507 72.6479 5.28986C72.2023 5.86957 71.9051 6.52174 71.9051 10.1449C71.9051 13.6957 72.2023 14.4203 72.6479 15C73.0193 15.4348 73.6879 15.7971 74.5793 15.7971C76.2134 15.7971 76.882 14.7826 77.1791 13.6957ZM45.3125 0V19.5652H40.8556V10.1449L37.513 15.2174H34.3189L31.1991 10.1449V19.5652H26.7422V0H31.1991L36.0273 9.13043L40.8556 0H45.3125Z" fill="#3E41DE"/>
<path fill-rule="evenodd" clip-rule="evenodd" d="M64.0304 8.33313C64.0304 5.50705 63.5105 3.69545 62.0991 2.24618C60.6135 0.796903 58.6822 0.0722656 56.3795 0.0722656C54.0768 0.0722656 52.2197 0.796903 50.7341 2.31864C49.1742 3.91285 48.7285 5.57951 48.7285 9.42009V10.8694C48.7285 13.2607 48.7285 15.8694 50.7341 17.8984C52.2197 19.4201 54.0768 20.1447 56.3795 20.1447C58.6822 20.1447 60.5392 19.4201 62.0248 17.8984C63.9562 15.9418 64.0304 13.4781 64.0304 10.8694V8.33313ZM59.2019 10.5621C59.2019 13.0983 58.9048 14.2025 58.3848 14.8547C57.9391 15.4344 57.1963 15.7967 56.4535 15.7967C55.6364 15.7967 54.8936 15.4344 54.4479 14.9272C53.9279 14.275 53.7051 13.188 53.7051 10.6518V9.27499C53.7051 7.39094 53.9279 5.94166 54.4479 5.28949C54.8936 4.70978 55.5621 4.41992 56.4535 4.41992C57.2706 4.41992 58.0134 4.70978 58.4591 5.28949C58.979 6.01412 59.2019 7.4634 59.2019 9.27499V10.5621Z" fill="#3E41DE"/>
</g>
<defs>
<clipPath id="clip0_401_13865">
<rect width="186" height="20" fill="white"/>
</clipPath>
</defs>
</svg>
