<svg width="126" height="125" viewBox="0 0 126 125" fill="none" xmlns="http://www.w3.org/2000/svg">
<circle cx="63" cy="62.5" r="62.5" fill="#3E41DE"/>
<path d="M90.5363 90V30C90.5363 27.7909 88.7454 26 86.5363 26H49.6936C48.9173 26 48.1713 26.3009 47.6123 26.8394L34.3835 39.5831C33.7965 40.1486 33.4648 40.9286 33.4648 41.7437V90C33.4648 92.2091 35.2557 94 37.4648 94H86.5363C88.7454 94 90.5363 92.2091 90.5363 90Z" stroke="white" stroke-width="2" stroke-linecap="round"/>
<path d="M50.5 26V40C50.5 41.1046 49.6046 42 48.5 42H33.5" stroke="white" stroke-width="2"/>
<path d="M43.5 71H60.5" stroke="white" stroke-width="2" stroke-linecap="round"/>
<path d="M43.5 78H60.5" stroke="white" stroke-width="2" stroke-linecap="round"/>
<rect x="69.5" y="72" width="25.4166" height="25.4166" rx="1" fill="#3E41DE" stroke="white" stroke-width="2"/>
<path d="M75.5742 81.7438L80.0114 89.3743C80.7662 90.6724 82.6291 90.7067 83.4311 89.4371L90.6091 78.0752" stroke="white" stroke-width="2" stroke-linecap="round"/>
<path d="M44.56 61.47V57.985H47.79C48.3 57.985 48.64 57.645 48.64 57.22C48.64 56.795 48.3 56.455 47.79 56.455H44.56V52.97H48.81C49.32 52.97 49.66 52.63 49.66 52.205C49.66 51.78 49.32 51.44 48.81 51.44H43.71C43.2 51.44 42.86 51.78 42.86 52.205V62.235C42.86 62.66 43.2 63 43.71 63H48.98C49.49 63 49.83 62.66 49.83 62.252C49.83 61.81 49.49 61.47 48.98 61.47H44.56ZM53.392 51.44C52.882 51.44 52.542 51.78 52.542 52.205V62.235C52.542 62.66 52.882 63 53.392 63C53.902 63 54.242 62.66 54.242 62.235V52.97H57.642V54.075C57.642 54.5 57.982 54.84 58.492 54.84C59.002 54.84 59.342 54.5 59.342 54.075V52.205C59.342 51.78 59.002 51.44 58.492 51.44H53.392ZM63.592 57.39V52.97H65.292C66.992 52.97 67.842 53.82 67.842 55.18C67.842 56.54 66.992 57.39 65.292 57.39H63.592ZM69.542 55.18C69.542 52.97 68.012 51.44 65.292 51.44H62.742C62.232 51.44 61.892 51.78 61.892 52.205V62.235C61.892 62.66 62.232 63 62.742 63C63.252 63 63.592 62.66 63.592 62.235V58.92H65.292C68.012 58.92 69.542 57.39 69.542 55.18ZM72.4373 62.235C72.4373 62.66 72.7773 63 73.2873 63C73.7973 63 74.1373 62.66 74.1373 62.235V57.815H78.3873V62.235C78.3873 62.66 78.7273 63 79.2373 63C79.7473 63 80.0873 62.66 80.0873 62.235V52.205C80.0873 51.78 79.7473 51.44 79.2373 51.44C78.7273 51.44 78.3873 51.78 78.3873 52.205V56.285H74.1373V52.205C74.1373 51.78 73.7973 51.44 73.2873 51.44C72.7773 51.44 72.4373 51.78 72.4373 52.205V62.235Z" fill="white"/>
</svg>
