<svg width="144" height="142" viewBox="0 0 144 142" fill="none" xmlns="http://www.w3.org/2000/svg">
<g clip-path="url(#clip0_401_14222)">
<path d="M108.8 140.66C107.333 135.86 105.667 130.927 103.8 125.86C102.067 120.793 100.333 115.727 98.6 110.66H44.6C42.8667 115.727 41.0667 120.793 39.2 125.86C37.4667 130.927 35.8667 135.86 34.4 140.66H2C7.2 125.727 12.1333 111.927 16.8 99.2602C21.4667 86.5935 26 74.6602 30.4 63.4602C34.9333 52.2602 39.3333 41.6602 43.6 31.6602C48 21.5268 52.5333 11.6601 57.2 2.06015H87C91.5333 11.6601 96 21.5268 100.4 31.6602C104.8 41.6602 109.2 52.2602 113.6 63.4602C118.133 74.6602 122.733 86.5935 127.4 99.2602C132.067 111.927 137 125.727 142.2 140.66H108.8ZM71.4 33.4602C70.7333 35.4602 69.7333 38.1935 68.4 41.6601C67.0667 45.1268 65.5333 49.1268 63.8 53.6601C62.0667 58.1935 60.1333 63.1935 58 68.6602C56 74.1268 53.9333 79.8602 51.8 85.8602H91.2C89.0667 79.8602 87 74.1268 85 68.6602C83 63.1935 81.0667 58.1935 79.2 53.6601C77.4667 49.1268 75.9333 45.1268 74.6 41.6601C73.2667 38.1935 72.2 35.4602 71.4 33.4602Z" fill="#E7EDFB"/>
</g>
<defs>
<clipPath id="clip0_401_14222">
<rect width="144" height="142" fill="white"/>
</clipPath>
</defs>
</svg>
